<svg width="526" height="230" xmlns="http://www.w3.org/2000/svg" xmlns:xlink="http://www.w3.org/1999/xlink" overflow="hidden"><defs><clipPath id="clip0"><path d="M0 0 526 0 526 230 0 230Z" fill-rule="evenodd" clip-rule="evenodd"/></clipPath><clipPath id="clip1"><path d="M382.281 85.8553 394.312 92.7911 387.297 104.924 375.266 97.9884Z" fill-rule="evenodd" clip-rule="evenodd"/></clipPath><clipPath id="clip2"><path d="M382.281 85.8553 394.312 92.7911 387.297 104.924 375.266 97.9884Z" fill-rule="evenodd" clip-rule="evenodd"/></clipPath><clipPath id="clip3"><path d="M382.281 85.8553 394.312 92.7911 387.297 104.924 375.266 97.9884Z" fill-rule="evenodd" clip-rule="evenodd"/></clipPath><clipPath id="clip4"><path d="M106.109 117.213 119.527 120.803 115.896 134.336 102.477 130.746Z" fill-rule="evenodd" clip-rule="evenodd"/></clipPath><clipPath id="clip5"><path d="M106.109 117.213 119.527 120.803 115.896 134.336 102.477 130.746Z" fill-rule="evenodd" clip-rule="evenodd"/></clipPath><clipPath id="clip6"><path d="M106.109 117.213 119.527 120.803 115.896 134.336 102.477 130.746Z" fill-rule="evenodd" clip-rule="evenodd"/></clipPath><clipPath id="clip7"><path d="M106.488 97.9972 119.907 94.407 123.538 107.94 110.12 111.53Z" fill-rule="evenodd" clip-rule="evenodd"/></clipPath><clipPath id="clip8"><path d="M106.488 97.9972 119.907 94.407 123.538 107.94 110.12 111.53Z" fill-rule="evenodd" clip-rule="evenodd"/></clipPath><clipPath id="clip9"><path d="M106.488 97.9972 119.907 94.407 123.538 107.94 110.12 111.53Z" fill-rule="evenodd" clip-rule="evenodd"/></clipPath></defs><g clip-path="url(#clip0)"><rect x="0" y="0" width="525.239" height="230" fill="#FFFFFF" transform="scale(1.00145 1)"/><rect x="0" y="0" width="525.239" height="230" fill="#F2F2F2" transform="scale(1.00145 1)"/><rect x="0" y="0" width="74.2751" height="96.8076" stroke="#6A4742" stroke-width="2.66284" stroke-miterlimit="8" fill="#F2F2F2" transform="matrix(0.997627 0.0871548 -0.0870306 0.996206 294.746 102.167)"/><rect x="0" y="0" width="67.2113" height="10.9857" fill="#D68D87" transform="matrix(0.997627 0.0871548 -0.0870306 0.996206 297.915 106.527)"/><path d="M0 0 64.2938 0.000104836" stroke="#6A4742" stroke-width="1.66427" stroke-miterlimit="8" fill="none" fill-rule="evenodd" transform="matrix(0.997627 0.0871548 -0.0870306 0.996206 294.05 162.055)"/><path d="M0 0 64.2938 0.000104836" stroke="#6A4742" stroke-width="1.66427" stroke-miterlimit="8" fill="none" fill-rule="evenodd" transform="matrix(0.997627 0.0871548 -0.0870306 0.996206 293.278 170.864)"/><path d="M0 0 64.2938 0.000104836" stroke="#6A4742" stroke-width="1.66427" stroke-miterlimit="8" fill="none" fill-rule="evenodd" transform="matrix(0.997627 0.0871548 -0.0870306 0.996206 292.506 179.673)"/><path d="M0 0 64.2938 0.000104836" stroke="#6A4742" stroke-width="1.66427" stroke-miterlimit="8" fill="none" fill-rule="evenodd" transform="matrix(0.997627 0.0871548 -0.0870306 0.996206 291.734 188.482)"/><path d="M0 0 55.9239 0.000104866" stroke="#D0D0D0" stroke-width="0.998847" stroke-linecap="round" stroke-linejoin="round" stroke-miterlimit="10" fill="none" fill-rule="evenodd" transform="matrix(0.893736 -0.450508 0.45012 0.892968 211.783 185.655)"/><path d="M100.412 129.847C4.00447 129.847 4.00447 129.847 4.00447 129.847 1.80201 129.847 0 128.116 0 126 0 3.84733 0 3.84733 0 3.84733 0 1.7313 1.80201 0 4.00447 0 100.412 0 100.412 0 100.412 0 102.715 0 104.517 1.7313 104.517 3.84733 104.517 126 104.517 126 104.517 126 104.517 128.116 102.715 129.847 100.412 129.847" fill="#D68D87" fill-rule="evenodd" transform="matrix(1.00144 0.00463005 -0.00462335 0.999989 212.854 76.7782)"/><rect x="0" y="0" width="85.2734" height="113.717" fill="#F3EEDD" transform="matrix(1.00144 0.00463005 -0.00462335 0.999989 222.428 85.066)"/><rect x="0" y="0" width="93.8005" height="123.912" fill="#FFFFFF" transform="matrix(1.00144 0.00463005 -0.00462335 0.999989 218.184 79.4142)"/><path d="M9.22166 9.33228C7.51765 9.33228 7.51765 9.33228 7.51765 9.33228 5.81365 9.33228 4.51059 7.98535 4.51059 6.3498 4.51059 4.71425 5.81365 3.46353 7.51765 3.46353 9.22166 3.46353 9.22166 3.46353 9.22166 3.46353 10.9257 3.46353 12.2287 4.71425 12.2287 6.3498 12.2287 7.98535 10.9257 9.33228 9.22166 9.33228M10.1238 0C6.61554 0 6.61554 0 6.61554 0 3.00706 0 0 2.88627 0 6.3498 0 9.90954 3.00706 12.6996 6.61554 12.6996 10.1238 12.6996 10.1238 12.6996 10.1238 12.6996 13.7322 12.6996 16.7393 9.90954 16.7393 6.3498 16.7393 2.88627 13.7322 0 10.1238 0" fill="#D0D0D0" fill-rule="evenodd" transform="matrix(1.00144 0.00463005 -0.00462335 0.999989 256.731 66.3882)"/><path d="M12.019 0C7.9125 0 7.9125 0 7.9125 0 3.50554 0 0 3.47061 0 7.61607 0 11.8579 3.50554 15.3285 7.9125 15.3285 12.019 15.3285 12.019 15.3285 12.019 15.3285 16.426 15.3285 20.0317 11.8579 20.0317 7.61607 20.0317 3.47061 16.426 0 12.019 0M10.9172 11.1831C9.01424 11.1831 9.01424 11.1831 9.01424 11.1831 6.91092 11.1831 5.30839 9.6406 5.30839 7.61607 5.30839 5.68795 6.91092 4.04905 9.01424 4.04905 10.9172 4.04905 10.9172 4.04905 10.9172 4.04905 13.0206 4.04905 14.6231 5.68795 14.6231 7.61607 14.6231 9.6406 13.0206 11.1831 10.9172 11.1831" fill="#D68D87" fill-rule="evenodd" transform="matrix(1.00144 0.00463005 -0.00462335 0.999989 255.159 65.1344)"/><rect x="0" y="0" width="62.6916" height="4.63423" fill="#D68D87" transform="matrix(1.00144 0.00463005 -0.00462335 0.999989 233.921 85.1359)"/><path d="M62.6916 6.06009C0 6.06009 0 6.06009 0 6.06009 0 1.63526 0 1.63526 0 1.63526 0 0.673343 0.701024 0 1.70249 0 60.9891 0 60.9891 0 60.9891 0 61.8904 0 62.6916 0.673343 62.6916 1.63526L62.6916 6.06009Z" fill="#D68D87" fill-rule="evenodd" transform="matrix(1.00144 0.00463005 -0.00462335 0.999989 233.869 78.9522)"/><path d="M57.869 14.3929C0 14.3929 0 14.3929 0 14.3929 0 3.74215 0 3.74215 0 3.74215 0 1.63119 1.70203 0 3.90466 0 53.9643 0 53.9643 0 53.9643 0 56.0668 0 57.869 1.63119 57.869 3.74215L57.869 14.3929Z" fill="#D68D87" fill-rule="evenodd" transform="matrix(1.00144 0.00463005 -0.00462335 0.999989 236.287 73.2053)"/><rect x="0" y="0" width="57.8687" height="4.41145" fill="#D68D87" transform="matrix(1.00144 0.00463005 -0.00462335 0.999989 236.314 83.2178)"/><path d="M0 15C-3.941e-15 6.71573 6.92954 0 15.4776 0 24.0256-3.8194e-15 30.9551 6.71573 30.9551 15 30.9551 23.2843 24.0256 30 15.4776 30 6.92954 30-5.9115e-15 23.2843 0 15Z" fill="#D68D87" fill-rule="evenodd" transform="matrix(1.00145 0 -0 1 275 94)"/><path d="M14.6104 16.9999C1.36644 16.9999 1.36644 16.9999 1.36644 16.9999 0.630665 16.9999 0 16.2499 0 15.3749 0 1.62499 0 1.62499 0 1.62499 0 0.749997 0.630665 0 1.36644 0 14.6104 0 14.6104 0 14.6104 0 15.3462 0 15.9768 0.749997 15.9768 1.62499 15.9768 15.3749 15.9768 15.3749 15.9768 15.3749 15.9768 16.2499 15.3462 16.9999 14.6104 16.9999" fill="#D4D6D9" fill-rule="evenodd" transform="matrix(1.00145 0 -0 1 220 130)"/><path d="M6.87294 0.102276 3.02681 6.58607 1.03097 4.20954 0.0868337 5.30903 3.20266 9.01839 7.96053 0.997492Z" fill="#695934" fill-rule="evenodd" transform="matrix(1.00145 0 -0 1 224 134)"/><path d="M0 0 59.9207 0.000104835" stroke="#6A4742" stroke-width="0.998553" stroke-linecap="round" stroke-linejoin="round" stroke-miterlimit="10" fill="none" fill-rule="evenodd" transform="matrix(1.00145 0 -0 1 239.5 134.5)"/><path d="M0 0 59.9207 0.000104835" stroke="#6A4742" stroke-width="0.998553" stroke-linecap="round" stroke-linejoin="round" stroke-miterlimit="10" fill="none" fill-rule="evenodd" transform="matrix(1.00145 0 -0 1 239.5 141.5)"/><path d="M14.6104 16C1.36644 16 1.36644 16 1.36644 16 0.630665 16 0 15.2941 0 14.4706 0 1.52941 0 1.52941 0 1.52941 0 0.705883 0.630665 0 1.36644 0 14.6104 0 14.6104 0 14.6104 0 15.3462 0 15.9768 0.705883 15.9768 1.52941 15.9768 14.4706 15.9768 14.4706 15.9768 14.4706 15.9768 15.2941 15.3462 16 14.6104 16" fill="#D4D6D9" fill-rule="evenodd" transform="matrix(1.00145 0 -0 1 220 155)"/><path d="M6.87294 0.11364 3.02681 7.31787 1.03097 4.67727 0.0868337 5.89894 3.20266 10.0205 7.96053 1.10833Z" fill="#695934" fill-rule="evenodd" transform="matrix(1.00145 0 -0 1 224 158)"/><path d="M0 0 59.9207 0.000104835" stroke="#6A4742" stroke-width="0.998553" stroke-linecap="round" stroke-linejoin="round" stroke-miterlimit="10" fill="none" fill-rule="evenodd" transform="matrix(1.00145 0 -0 1 239.5 159.5)"/><path d="M0 0 59.9207 0.000104835" stroke="#6A4742" stroke-width="0.998553" stroke-linecap="round" stroke-linejoin="round" stroke-miterlimit="10" fill="none" fill-rule="evenodd" transform="matrix(1.00145 0 -0 1 239.5 166.5)"/><path d="M0 0 59.9207 0.000104835" stroke="#6A4742" stroke-width="0.998553" stroke-linecap="round" stroke-linejoin="round" stroke-miterlimit="10" fill="none" fill-rule="evenodd" transform="matrix(1.00145 0 -0 1 239.5 173.5)"/><path d="M0 9.00003C-2.16119e-15 4.02945 3.80007 0 8.4877 0 13.1753-2.29165e-15 16.9754 4.02945 16.9754 9.00003 16.9754 13.9706 13.1753 18.0001 8.4877 18.0001 3.80007 18.0001-3.24179e-15 13.9706 0 9.00003Z" stroke="#7C7C7B" stroke-width="1.3314" stroke-miterlimit="8" fill="none" fill-rule="evenodd" transform="matrix(1.00145 0 -0 1 284.5 180.5)"/><path d="M0 4.49999C-1.14416e-15 2.01471 2.0118 0 4.49349 0 6.97517-1.14582e-15 8.98698 2.01471 8.98698 4.49999 8.98698 6.98526 6.97517 8.99998 4.49349 8.99998 2.0118 8.99998-1.71624e-15 6.98526 0 4.49999Z" fill="#7C7C7B" fill-rule="evenodd" transform="matrix(1.00145 0 -0 1 288 185)"/><path d="M0 6.80261 6.80261 6.80261 6.80261 0 11.1713 0 11.1713 6.80261 17.974 6.80261 17.974 12.1975 11.1713 12.1975 11.1713 19.0001 6.80261 19.0001 6.80261 12.1975 0 12.1975Z" fill="#F2F2F2" fill-rule="evenodd" transform="matrix(1.00145 0 -0 1 282 100)"/><path d="M11.9548 19.054C11.5931 19.0559 11.2983 19.1591 11.0703 19.3636 10.8424 19.568 10.7248 19.8623 10.7175 20.2466L10.7175 20.4928 13.1792 20.4928 13.1792 20.2336C13.1782 19.9009 13.0739 19.6233 12.8667 19.4008 12.6594 19.1783 12.3555 19.0627 11.9548 19.054ZM24.8464 18.2513 25.6439 18.2513C25.7318 18.2491 25.7746 18.2923 25.7726 18.3808L25.7726 23.8058C25.7733 23.8502 25.7653 23.8811 25.7484 23.8981 25.7316 23.9152 25.7012 23.9235 25.6572 23.9231L24.8587 23.9231C24.8194 23.9231 24.7883 23.9134 24.7653 23.8939 24.7422 23.8746 24.7304 23.8454 24.7298 23.8066L24.7306 18.3808C24.7306 18.2923 24.7692 18.2491 24.8464 18.2513ZM27.6512 18.24 28.4485 18.24C28.4927 18.24 28.5233 18.2498 28.5402 18.2692 28.557 18.2886 28.5651 18.3178 28.5643 18.3567L28.5643 21.8207C28.5619 22.1971 28.6602 22.5015 28.8591 22.7336 29.0581 22.9658 29.3722 23.0853 29.8016 23.0921 30.1802 23.0849 30.4799 22.9662 30.7005 22.7356 30.9212 22.505 31.034 22.2052 31.0389 21.836L31.0389 18.3698C31.0386 18.3246 31.0488 18.2917 31.0694 18.2709 31.0901 18.25 31.1227 18.2397 31.1675 18.24L31.952 18.24C31.9911 18.24 32.0222 18.2498 32.0452 18.2692 32.0683 18.2886 32.08 18.3179 32.0805 18.3568L32.0805 23.7931C32.0805 23.8815 32.0419 23.9246 31.9649 23.9224L31.2061 23.9224C31.1618 23.9227 31.1313 23.9124 31.1143 23.8917 31.0974 23.8711 31.0891 23.8384 31.0896 23.7937L31.0896 23.457 31.051 23.4441C30.8427 23.631 30.5991 23.7686 30.32 23.8567 30.0409 23.945 29.778 23.9887 29.5312 23.9878 28.8901 23.9784 28.398 23.7804 28.0547 23.3939 27.7116 23.0074 27.5382 22.4889 27.5347 21.8386L27.5347 18.3816 27.5355 18.3697C27.5355 18.3246 27.5451 18.2916 27.5645 18.2708 27.5837 18.25 27.6126 18.2397 27.6512 18.24ZM35.7462 18.1753C36.0926 18.1791 36.4083 18.2523 36.6933 18.395 36.9783 18.5376 37.2035 18.7272 37.3691 18.9636L37.4077 18.9636C37.5843 18.7328 37.8197 18.5449 38.1142 18.3998 38.4086 18.2547 38.7441 18.1798 39.1209 18.1753 39.8406 18.186 40.3749 18.3875 40.724 18.7798 41.0731 19.172 41.2468 19.6907 41.2452 20.3359L41.2452 23.7928C41.2452 23.8813 41.2067 23.9245 41.1295 23.9223L40.3322 23.9223C40.288 23.9223 40.2574 23.9126 40.2405 23.8932 40.2236 23.8738 40.2156 23.8446 40.2164 23.8058L40.2164 20.3359C40.2172 19.9884 40.1222 19.6928 39.9312 19.449 39.7403 19.2051 39.4488 19.0778 39.0564 19.067 38.721 19.0795 38.4477 19.2099 38.2363 19.4587 38.025 19.7074 37.9159 19.9998 37.9093 20.3359L37.9093 23.7928C37.9101 23.8379 37.902 23.8708 37.8852 23.8915 37.8683 23.9123 37.8377 23.9226 37.7935 23.9223L37.0091 23.9223C36.9212 23.9223 36.8784 23.8835 36.8804 23.8058L36.8804 20.3359C36.8823 19.9884 36.7916 19.6928 36.6082 19.449 36.4247 19.2051 36.1374 19.0778 35.7462 19.067 35.3652 19.0786 35.0768 19.2075 34.881 19.4538 34.6854 19.7 34.5871 19.9941 34.5862 20.3359L34.5862 23.7928C34.5871 23.8379 34.5789 23.8708 34.5621 23.8915 34.5452 23.9123 34.5147 23.9226 34.4705 23.9223L33.6732 23.9223C33.634 23.9223 33.6029 23.9126 33.58 23.8932 33.5569 23.8738 33.5451 23.8446 33.5446 23.8058L33.5446 20.3359C33.5485 19.702 33.7399 19.1865 34.1188 18.7894 34.4976 18.3924 35.0401 18.1876 35.7462 18.1753ZM17.9123 18.1753C18.2587 18.1791 18.5744 18.2523 18.8594 18.395 19.1444 18.5376 19.3696 18.7272 19.5352 18.9636L19.5738 18.9636C19.7504 18.7328 19.9858 18.5449 20.2803 18.3998 20.5747 18.2547 20.9102 18.1798 21.287 18.1753 22.0067 18.186 22.541 18.3875 22.8901 18.7798 23.2392 19.172 23.4129 19.6907 23.4112 20.3359L23.4112 23.7928C23.4114 23.8813 23.3728 23.9245 23.2956 23.9223L22.4983 23.9223C22.4541 23.9223 22.4235 23.9126 22.4066 23.8932 22.3897 23.8738 22.3817 23.8446 22.3825 23.8058L22.3825 20.3359C22.3833 19.9884 22.2883 19.6928 22.0973 19.449 21.9064 19.2051 21.6149 19.0778 21.2225 19.067 20.8871 19.0795 20.6138 19.2099 20.4024 19.4587 20.1911 19.7074 20.082 19.9998 20.0754 20.3359L20.0754 23.7928C20.0762 23.8379 20.0681 23.8708 20.0513 23.8915 20.0344 23.9123 20.0038 23.9226 19.9596 23.9223L19.1752 23.9223C19.0873 23.9223 19.0445 23.8835 19.0465 23.8058L19.0465 20.3359C19.0484 19.9884 18.9577 19.6928 18.7743 19.449 18.5908 19.2051 18.3035 19.0778 17.9123 19.067 17.5313 19.0786 17.2429 19.2075 17.0471 19.4538 16.8514 19.7 16.7532 19.9941 16.7523 20.3359L16.7523 23.7928C16.7532 23.8379 16.745 23.8708 16.7282 23.8915 16.7113 23.9123 16.6808 23.9226 16.6365 23.9223L15.8392 23.9223C15.8001 23.9223 15.769 23.9126 15.746 23.8932 15.723 23.8738 15.7112 23.8446 15.7107 23.8058L15.7107 20.3359C15.7146 19.702 15.906 19.1865 16.2849 18.7894 16.6637 18.3924 17.2062 18.1876 17.9123 18.1753ZM8.44169 18.1753C8.49807 18.1753 8.56246 18.1784 8.63496 18.1849 8.70735 18.1914 8.75884 18.2011 8.78953 18.2141 8.85225 18.2326 8.89095 18.2569 8.90541 18.2868 8.91986 18.3167 8.91986 18.357 8.90541 18.408L8.75083 19.1707C8.73658 19.2391 8.71349 19.2801 8.68156 19.2936 8.64973 19.3071 8.61696 19.3092 8.58336 19.3001 8.45241 19.2742 8.3279 19.2612 8.20984 19.2612 7.73354 19.2704 7.39818 19.4106 7.20367 19.6821 7.00905 19.9534 6.91512 20.3007 6.92188 20.7243L6.92188 23.7928C6.92188 23.8813 6.88329 23.9245 6.80611 23.9223L6.00881 23.9223C5.9697 23.9223 5.9386 23.9126 5.91561 23.8932 5.89252 23.8738 5.88077 23.8446 5.88025 23.8058L5.88025 18.3821C5.88025 18.2938 5.91873 18.2507 5.99591 18.2528L6.66465 18.2528C6.75254 18.2528 6.7954 18.2916 6.79332 18.3692L6.79332 19.0802 6.8318 19.0802C6.98586 18.8276 7.20585 18.6153 7.4918 18.4435 7.77785 18.2717 8.09448 18.1822 8.44169 18.1753ZM11.9548 18.1623C12.6468 18.173 13.1952 18.3811 13.6001 18.7864 14.0049 19.1918 14.2119 19.7304 14.2209 20.4021L14.2209 21.0098C14.2174 21.1018 14.189 21.1761 14.1357 21.2326 14.0824 21.2892 14.0251 21.3182 13.9637 21.3199L10.7175 21.3199 10.7175 21.7993C10.7127 22.1596 10.8061 22.463 10.9978 22.7098 11.1895 22.9565 11.5086 23.085 11.9548 23.0953 12.2134 23.0929 12.447 23.033 12.6557 22.9154 12.8642 22.798 13.043 22.6376 13.1921 22.4344 13.2302 22.3833 13.2698 22.3558 13.311 22.3517 13.3523 22.3477 13.3984 22.3623 13.4493 22.3955L13.8994 22.7065C13.9511 22.7386 13.986 22.7716 14.0039 22.8053 14.0218 22.8391 14.0213 22.8753 14.0023 22.9139 13.7903 23.2873 13.5066 23.5621 13.1512 23.7382 12.7959 23.9143 12.4056 24.0016 11.9806 24 11.2819 23.9917 10.7276 23.7983 10.3177 23.4196 9.90772 23.0409 9.69802 22.5268 9.68876 21.8771L9.68876 20.4021C9.70021 19.7304 9.91199 19.1918 10.324 18.7864 10.7361 18.3811 11.2797 18.173 11.9548 18.1623ZM1.06743 16.866 1.06743 19.716 2.35622 19.716C2.76158 19.7109 3.08486 19.5819 3.32598 19.3289 3.56709 19.0761 3.69067 18.7301 3.69649 18.2909 3.69711 17.9369 3.58644 17.6152 3.36467 17.3258 3.14291 17.0365 2.80672 16.8832 2.35622 16.866ZM0.154259 15.9354 2.35622 15.9354C3.11607 15.9498 3.70575 16.1762 4.12536 16.6144 4.54497 17.0526 4.75789 17.6158 4.76392 18.3039 4.7504 18.9621 4.52354 19.5107 4.08365 19.9497 3.64365 20.3888 3.07217 20.6167 2.36912 20.6337L1.06743 20.6337 1.08033 23.7669C1.08023 23.8705 1.02884 23.9223 0.925969 23.9223L0.154259 23.9223C0.108491 23.9221 0.0714604 23.9096 0.0433755 23.8851 0.0151866 23.8606 0.000728127 23.8255 0 23.7799L0 16.0776C0 15.9849 0.0513849 15.9375 0.154259 15.9354ZM25.2579 15.8309C25.4493 15.8348 25.6076 15.8951 25.7328 16.0122 25.8582 16.1293 25.9231 16.2803 25.9277 16.4654 25.9229 16.6453 25.8585 16.7969 25.7345 16.9201 25.6105 17.0434 25.4559 17.1076 25.2708 17.1127 25.0861 17.1093 24.9338 17.0483 24.8135 16.9299 24.6934 16.8115 24.6311 16.6566 24.6268 16.4654 24.6314 16.286 24.6931 16.1365 24.812 16.017 24.9308 15.8976 25.0795 15.8355 25.2579 15.8309ZM25.5809 4.91842C25.2285 4.92543 24.9504 5.03449 24.7463 5.2456L24.434 6.05826 24.6947 6.86538C24.8736 7.07879 25.1733 7.18932 25.5938 7.19716 25.9461 7.19015 26.2242 7.0812 26.4283 6.87029 26.6324 6.6595 26.7366 6.38889 26.7409 6.05857 26.7425 5.73328 26.649 5.46393 26.4605 5.25041 26.2721 5.03689 25.9788 4.92626 25.5809 4.91842ZM42.6687 3.11869C42.3071 3.12057 42.0123 3.22377 41.7843 3.42819 41.5563 3.63261 41.4387 3.92696 41.4314 4.31123L41.4314 4.55747 43.8931 4.55747 43.8931 4.29826C43.8921 3.96554 43.7879 3.68793 43.5806 3.46542 43.3734 3.24291 43.0694 3.12737 42.6687 3.11869ZM13.7804 2.30467 14.5777 2.30467C14.6219 2.30467 14.6525 2.31439 14.6694 2.33384 14.6862 2.35329 14.6943 2.38246 14.6935 2.42136L14.6935 5.88531C14.6911 6.26174 14.7894 6.56612 14.9883 6.79825 15.1873 7.03048 15.5014 7.14989 15.9308 7.15669 16.3094 7.14958 16.6091 7.0308 16.8297 6.80024 17.0504 6.56968 17.1632 6.26979 17.1681 5.90068L17.1681 2.43443C17.1678 2.38926 17.178 2.35632 17.1987 2.33551 17.2193 2.3146 17.2519 2.30435 17.2966 2.30467L18.0812 2.30467C18.1203 2.30467 18.1514 2.31439 18.1744 2.33384 18.1974 2.35329 18.2092 2.38257 18.2097 2.42146L18.2097 7.85778C18.2097 7.94614 18.1711 7.98922 18.0941 7.98702L17.3352 7.98702C17.291 7.98734 17.2605 7.97709 17.2435 7.95639 17.2265 7.93579 17.2183 7.90306 17.2187 7.85831L17.2187 7.52162 17.1801 7.50875C16.9719 7.69561 16.7283 7.83321 16.4492 7.92136 16.1701 8.00961 15.9072 8.05332 15.6603 8.05248 15.0193 8.04307 14.5272 7.84503 14.1839 7.45856 13.8408 7.07199 13.6674 6.55357 13.6639 5.90319L13.6639 2.44624 13.6646 2.43432C13.6646 2.38926 13.6743 2.35622 13.6937 2.33541 13.7129 2.3146 13.7418 2.30435 13.7804 2.30467ZM32.1569 2.2528C32.7979 2.26221 33.2898 2.45994 33.6328 2.84599 33.9756 3.23214 34.1488 3.75025 34.1523 4.40052L34.1523 7.85747C34.1523 7.94593 34.1137 7.98911 34.0365 7.98692L33.2392 7.98692C33.195 7.98692 33.1645 7.97719 33.1475 7.95785 33.1307 7.9384 33.1227 7.90923 33.1234 7.87044L33.1234 4.41349C33.1259 4.03769 33.0276 3.73393 32.8286 3.50222 32.6296 3.27062 32.3155 3.15131 31.8862 3.14462 31.5076 3.15163 31.2079 3.2703 30.9872 3.50066 30.7665 3.73101 30.6537 4.031 30.6489 4.40052L30.6489 7.85747C30.651 7.94593 30.6082 7.98911 30.5203 7.98692L29.7359 7.98692C29.6967 7.98692 29.6656 7.97719 29.6426 7.95785 29.6196 7.9384 29.6077 7.90923 29.6072 7.87044L29.6072 2.44666C29.6072 2.35841 29.6458 2.31533 29.723 2.31742L30.4817 2.31742C30.5259 2.31721 30.5565 2.32746 30.5733 2.34817 30.5903 2.36887 30.5983 2.4017 30.5974 2.44666L30.5974 2.78273 30.636 2.79569C30.8444 2.60905 31.0882 2.47176 31.3674 2.38372 31.6467 2.29567 31.9098 2.25207 32.1569 2.2528ZM10.6291 2.2528C10.9876 2.2458 11.3306 2.30509 11.6581 2.43056 11.9857 2.55604 12.2736 2.75094 12.5219 3.01528 12.5533 3.0479 12.5646 3.08293 12.5557 3.12036 12.5469 3.15779 12.5227 3.19617 12.4834 3.23528L12.1362 3.6368C12.0917 3.68803 12.0456 3.71187 11.998 3.708 11.9502 3.70424 11.8978 3.67622 11.8404 3.62383 11.6639 3.46678 11.4696 3.34371 11.2575 3.25472 11.0454 3.16564 10.8316 3.12036 10.6162 3.11869 10.3294 3.12057 10.1038 3.17829 9.93945 3.29195 9.7751 3.4055 9.69137 3.56371 9.68814 3.76635 9.69085 3.95174 9.76272 4.10555 9.90398 4.22778 10.0452 4.35002 10.2397 4.45521 10.4873 4.54346 10.8307 4.66224 11.1677 4.79033 11.4984 4.92773 11.8289 5.06523 12.1038 5.25083 12.3227 5.48473 12.5416 5.71854 12.6552 6.03954 12.6634 6.44755 12.6599 6.89392 12.4836 7.26972 12.1342 7.57494 11.7849 7.88016 11.2832 8.0391 10.6291 8.05164 10.163 8.05227 9.74223 7.94771 9.36693 7.73816 8.99153 7.52862 8.71276 7.21065 8.53052 6.78424 8.51742 6.75162 8.51471 6.72307 8.52251 6.6985 8.53021 6.67393 8.55008 6.655 8.58201 6.64182L9.23805 6.34393C9.27664 6.32636 9.30879 6.32584 9.33448 6.34225 9.36017 6.35877 9.37952 6.38084 9.39231 6.40865 9.52338 6.65751 9.70197 6.85283 9.92832 6.99472 10.1547 7.13672 10.414 7.20908 10.7065 7.21169 10.9892 7.20584 11.2197 7.13348 11.3977 6.99472 11.5758 6.85607 11.6676 6.68658 11.6732 6.48634 11.6708 6.28422 11.5983 6.12508 11.4557 6.0087 11.3131 5.89242 11.115 5.78828 10.8612 5.69626 10.5827 5.5986 10.2763 5.48452 9.94174 5.35424 9.60732 5.22385 9.31732 5.04181 9.07163 4.80779 8.82604 4.57389 8.69716 4.25257 8.68509 3.84404 8.70247 3.31987 8.89916 2.92525 9.27529 2.66018 9.65142 2.39501 10.1027 2.25929 10.6291 2.2528ZM5.40603 2.2528C6.04709 2.26221 6.53899 2.45994 6.88194 2.84599 7.22478 3.23214 7.39797 3.75025 7.40141 4.40052L7.40141 7.85747C7.40141 7.94593 7.36282 7.98911 7.28563 7.98692L6.48834 7.98692C6.44413 7.98692 6.41365 7.97719 6.3967 7.95785 6.37985 7.9384 6.37184 7.90923 6.37256 7.87044L6.37256 4.41349C6.37506 4.03769 6.27676 3.73393 6.07778 3.50222 5.87879 3.27062 5.56466 3.15131 5.13537 3.14462 4.75675 3.15163 4.45707 3.2703 4.23634 3.50066 4.01562 3.73101 3.90286 4.031 3.89808 4.40052L3.89808 7.85747C3.90016 7.94593 3.8573 7.98911 3.76941 7.98692L2.98501 7.98692C2.9459 7.98692 2.91479 7.97719 2.8917 7.95785 2.86871 7.9384 2.85686 7.90923 2.85634 7.87044L2.85634 2.44666C2.85634 2.35841 2.89493 2.31533 2.97211 2.31742L3.73082 2.31742C3.77502 2.31721 3.80561 2.32746 3.82246 2.34817 3.83941 2.36887 3.84742 2.4017 3.84659 2.44666L3.84659 2.78273 3.88518 2.79569C4.09353 2.60905 4.33735 2.47176 4.61653 2.38372 4.89582 2.29567 5.15899 2.25207 5.40603 2.2528ZM37.6884 2.23994C38.1115 2.24528 38.4855 2.32819 38.8105 2.4887 39.1355 2.6492 39.4225 2.89377 39.6719 3.22231 39.7043 3.26978 39.7167 3.3206 39.7089 3.37455 39.7011 3.42851 39.6716 3.47274 39.6203 3.50735L39.1696 3.85701C39.1057 3.90071 39.0498 3.91368 39.0021 3.8959 38.9544 3.87802 38.9114 3.83923 38.8733 3.77932 38.7286 3.56528 38.551 3.40393 38.3403 3.29519 38.1297 3.18644 37.9038 3.13197 37.6626 3.13165 37.2909 3.13835 36.9974 3.25441 36.7819 3.47974 36.5664 3.70508 36.4564 3.99921 36.4519 4.36215L36.4519 5.96834C36.4572 6.32395 36.572 6.60993 36.7964 6.82638 37.0207 7.04282 37.3223 7.15397 37.7013 7.15993 38.0302 7.15429 38.2963 7.08141 38.4998 6.9414 38.7032 6.80128 38.8792 6.62802 39.0278 6.42162 39.0536 6.39056 39.0826 6.37822 39.1148 6.38439 39.147 6.39056 39.1824 6.40729 39.2211 6.43458L39.6461 6.74545C39.7276 6.797 39.7738 6.84614 39.7845 6.89277 39.7952 6.93951 39.7835 6.98531 39.7492 7.03038 39.4864 7.41287 39.1779 7.68222 38.8234 7.83844 38.4689 7.99466 38.0991 8.07005 37.714 8.06461 37.0158 8.05823 36.4617 7.86751 36.0518 7.49244 35.642 7.11727 35.4324 6.59634 35.423 5.92944L35.423 4.43984C35.4362 3.74115 35.6511 3.19962 36.0679 2.81535 36.4847 2.43108 37.0248 2.23932 37.6884 2.23994ZM22.3125 2.23994C22.3689 2.23994 22.4333 2.24308 22.5058 2.24956 22.5782 2.25605 22.6297 2.26577 22.6603 2.27863 22.7231 2.29724 22.7618 2.3215 22.7762 2.35141 22.7907 2.38131 22.7907 2.42167 22.7762 2.47259L22.6216 3.23538C22.6074 3.30376 22.5843 3.34475 22.5524 3.35824 22.5204 3.37173 22.4878 3.37393 22.4542 3.36472 22.3232 3.33879 22.1987 3.32583 22.0806 3.32583 21.6043 3.33503 21.269 3.47525 21.0745 3.74669 20.8799 4.01803 20.7859 4.36539 20.7927 4.78897L20.7927 7.85747C20.7927 7.94593 20.7541 7.98911 20.6769 7.98692L19.8796 7.98692C19.8405 7.98692 19.8094 7.97719 19.7864 7.95785 19.7633 7.9384 19.7516 7.90923 19.7511 7.87044L19.7511 2.44677C19.7511 2.35841 19.7895 2.31533 19.8667 2.31742L20.5355 2.31742C20.6234 2.31742 20.6662 2.35622 20.6641 2.4338L20.6641 3.14483 20.7026 3.14483C20.8567 2.8922 21.0767 2.67994 21.3626 2.50815 21.6487 2.33635 21.9653 2.24684 22.3125 2.23994ZM42.6687 2.22698C43.3608 2.23764 43.9092 2.44572 44.314 2.85101 44.7188 3.2564 44.9258 3.795 44.9349 4.46671L44.9349 5.07443C44.9313 5.16644 44.9029 5.24079 44.8497 5.29725 44.7963 5.35382 44.739 5.38289 44.6776 5.38446L41.4314 5.38446 41.4314 5.86398C41.4267 6.2242 41.5201 6.52764 41.7118 6.77441 41.9035 7.02118 42.2225 7.14969 42.6687 7.15993 42.9273 7.15753 43.161 7.09761 43.3696 6.98008 43.5782 6.86266 43.757 6.70226 43.906 6.49899 43.9441 6.44797 43.9837 6.42046 44.0249 6.41639 44.0662 6.41231 44.1123 6.42695 44.1633 6.46009L44.6134 6.77117C44.6651 6.80327 44.6999 6.83621 44.7178 6.86998 44.7358 6.90375 44.7353 6.93993 44.7162 6.97852 44.5042 7.35191 44.2206 7.6267 43.8653 7.80289 43.5098 7.97897 43.1196 8.06628 42.6945 8.06461 41.9958 8.05635 41.4414 7.86291 41.0316 7.48429 40.6217 7.10556 40.412 6.59142 40.4027 5.94178L40.4027 4.46671C40.4142 3.795 40.6259 3.2564 41.0379 2.85101 41.4501 2.44572 41.9937 2.23764 42.6687 2.22698ZM25.7742 2.22698C26.5531 2.23409 27.0944 2.4201 27.3982 2.78471 27.702 3.14932 27.8473 3.64955 27.8341 4.28519L27.8341 7.85789C27.8341 7.94614 27.7955 7.98922 27.7183 7.98713L27.0111 7.98713C26.9669 7.98598 26.9363 7.97521 26.9194 7.95482 26.9024 7.93443 26.8942 7.9109 26.8947 7.88413L26.8947 7.53458 26.856 7.52162C26.6634 7.71422 26.4497 7.85339 26.2153 7.93924 25.9807 8.02498 25.722 8.06712 25.4392 8.06545 24.7993 8.05656 24.3114 7.87368 23.9758 7.51681 23.6401 7.15993 23.471 6.6825 23.4686 6.08451L23.4694 6.08451C23.471 5.51453 23.6479 5.04515 24.0001 4.67657 24.3524 4.30798 24.8707 4.11716 25.5551 4.1043 25.7635 4.10461 25.9815 4.13316 26.2092 4.18993 26.4369 4.24671 26.6227 4.33015 26.7667 4.44026L26.8054 4.42739 26.8054 4.13012C26.8083 3.78737 26.7186 3.53286 26.5363 3.36671 26.3539 3.20056 26.0612 3.11785 25.6582 3.11869 25.482 3.12109 25.2608 3.15194 24.9945 3.21112 24.7281 3.2703 24.507 3.34318 24.3309 3.42997 24.2409 3.46887 24.1766 3.44294 24.138 3.35218L23.9195 2.78273C23.9068 2.74341 23.9063 2.70891 23.9178 2.67932 23.9294 2.64962 23.9513 2.62808 23.9838 2.6147 24.2222 2.49675 24.5011 2.40306 24.8206 2.33353 25.14 2.2641 25.4579 2.22855 25.7742 2.22698ZM0.30883 0 1.10623 0C1.1521 0.000522814 1.18903 0.0123384 1.21722 0.0355513 1.2453 0.0587643 1.25976 0.0900285 1.2606 0.129344L1.2606 7.83164C1.2606 7.93516 1.20911 7.98692 1.10623 7.98692L0.30883 7.98692C0.263062 7.98671 0.226031 7.97427 0.197946 7.9497 0.169758 7.92523 0.155299 7.89009 0.154571 7.84461L0.154571 0.14231C0.154571 0.0495627 0.205956 0.00209125 0.30883 0Z" fill="#404040" fill-rule="evenodd" transform="matrix(1.00145 0 -0 1 224 94)"/><path d="M11.1284 61.0006 10.564 61.0006C4.72965 61.0006 0 56.2708 0 50.4365L0 10.564C0 4.72973 4.72973 0 10.5642 0L11.1286 0C16.963 0 21.6926 4.72973 21.6926 10.564L21.6926 50.4364C21.6926 56.2708 16.9628 61.0006 11.1284 61.0006Z" fill="#D0D0D0" fill-rule="evenodd" transform="matrix(0.259169 -0.965832 -0.967044 -0.259494 336.033 67.1303)"/><path d="M11.1339 26.0469 1.89977 26.0469C0.850556 26.0469 0 25.1963 0 24.1472L0 1.89978C0 0.850559 0.850556 0 1.89977 0L11.1339 0C12.1831 0 13.0337 0.850559 13.0337 1.89978L13.0337 24.1472C13.0337 25.1965 12.1831 26.0469 11.1339 26.0469Z" fill="#D68D87" fill-rule="evenodd" transform="matrix(0.259169 -0.965832 -0.967044 -0.259494 320.251 58.4259)"/><path d="M0.984321 1.96698C0.207204 1.96698-0.271197 1.10032 0.166496 0.437196 0.497941-0.0660272 1.23166-0.160387 1.68043 0.28837 2.28763 0.877975 1.88006 1.96698 0.984321 1.96698Z" fill="#FFFFFF" fill-rule="evenodd" transform="matrix(0.259169 -0.965832 -0.967044 -0.259494 318.581 54.5704)"/><path d="M0.983908 1.96868C0.441273 1.96868 0 1.52951 0 0.984827 0 0.105191 1.07835-0.327543 1.67871 0.290091 2.29177 0.885172 1.87166 1.96868 0.983908 1.96868Z" fill="#FFFFFF" fill-rule="evenodd" transform="matrix(0.259169 -0.965832 -0.967044 -0.259494 319.744 50.2444)"/><path d="M0.983907 1.96886C0.447379 1.96886 0 1.52922 0 0.984961 0 0.116749 1.05873-0.332255 1.67993 0.288942 2.29698 0.90607 1.85571 1.96886 0.983907 1.96886Z" fill="#FFFFFF" fill-rule="evenodd" transform="matrix(0.259169 -0.965832 -0.967044 -0.259494 314.021 53.3499)"/><path d="M0.98393 1.96815C0.448936 1.96815 0 1.53323 0 0.984321 0 0.106655 1.06706-0.326967 1.67875 0.288213 2.29915 0.908522 1.85054 1.96815 0.98393 1.96815Z" fill="#FFFFFF" fill-rule="evenodd" transform="matrix(0.259169 -0.965832 -0.967044 -0.259494 315.181 49.0236)"/><path d="M0.985293 1.967C0.200283 1.967-0.269649 1.086 0.167391 0.43712 0.503556-0.072297 1.23931-0.154934 1.68132 0.287071 2.29722 0.90298 1.85978 1.967 0.985293 1.967Z" fill="#FFFFFF" fill-rule="evenodd" transform="matrix(0.259169 -0.965832 -0.967044 -0.259494 309.458 52.1305)"/><path d="M0.978558 1.96763C-0.107797 1.96763-0.370124 0.471899 0.602246 0.0747417 1.16549-0.159009 1.82188 0.176351 1.94279 0.79179 2.06442 1.4126 1.5865 1.96763 0.978558 1.96763Z" fill="#FFFFFF" fill-rule="evenodd" transform="matrix(0.259169 -0.965832 -0.967044 -0.259494 310.621 47.7981)"/><path d="M0.983931 1.96708C0.429478 1.96708 0 1.514 0 0.983174 0 0.110399 1.06282-0.328675 1.67997 0.288292 2.29891 0.907132 1.85624 1.96708 0.983931 1.96708Z" fill="#FFFFFF" fill-rule="evenodd" transform="matrix(0.259169 -0.965832 -0.967044 -0.259494 304.898 50.9089)"/><path d="M0.983925 1.96425C0.440304 1.96425 0 1.52395 0 0.980334 0-0.0711579 1.47634-0.3978 1.89278 0.604028 2.16309 1.2648 1.67271 1.96425 0.983925 1.96425Z" fill="#FFFFFF" fill-rule="evenodd" transform="matrix(0.259169 -0.965832 -0.967044 -0.259494 306.056 46.582)"/><path d="M0.984879 1.96689C0.20134 1.96689-0.269647 1.084 0.167064 0.437052 0.632677-0.269982 1.75979-0.0956661 1.9503 0.79008 2.06998 1.4113 1.595 1.96689 0.984879 1.96689Z" fill="#FFFFFF" fill-rule="evenodd" transform="matrix(0.259169 -0.965832 -0.967044 -0.259494 300.335 49.6892)"/><path d="M0.985205 1.9671C0.198246 1.9671-0.268833 1.08349 0.16739 0.437369 0.501029-0.0702624 1.23784-0.156645 1.6813 0.287319 2.29925 0.920414 1.85358 1.9671 0.985205 1.9671Z" fill="#FFFFFF" fill-rule="evenodd" transform="matrix(0.259169 -0.965832 -0.967044 -0.259494 301.496 45.3634)"/><path d="M-4.9929-5.00012 0-5.00012 0-1.75267C0-0.784687-0.827225 0-1.84738 0L-3.14538 0C-4.16581 0-4.99276-0.784813-4.99276-1.75267L-4.99276-5.00012-4.9929-5.00012Z" fill="#6A4742" fill-rule="evenodd" transform="matrix(-1.00145 -0 -0 1 374 185)"/><path d="M-5.69183-5.00011-0.299486-5.00011C-0.134148-5.00011 0-4.89338 0-4.76197L0-1.82378C0-0.818069-1.02943 0-2.29467 0L-3.69665 0C-4.96189 0-5.99132-0.818184-5.99132-1.82378L-5.99132-4.76197C-5.99146-4.89338-5.85746-5.00011-5.69183-5.00011ZM-0.599117-4.52382-5.3922-4.52382-5.3922-1.82378C-5.3922-1.08077-4.63164-0.476174-3.69665-0.476174L-2.29481-0.476174C-1.35982-0.476174-0.599262-1.08077-0.599262-1.82378L-0.599262-4.52382-0.599117-4.52382Z" fill="#7C7C7B" fill-rule="evenodd" transform="matrix(-1.00145 -0 -0 1 374 185)"/><path d="M0 0-4.9929 0-4.9929-3.24746C-4.9929-4.21544-4.16567-5.00012-3.14551-5.00012L-1.84752-5.00012C-0.827091-5.00012-0.000133704-4.21531-0.000133704-3.24746L-0.000133704 0 0 0Z" fill="#FFFFFF" fill-rule="evenodd" transform="matrix(-1.00145 -0 -0 1 374 180)"/><path d="M-3.69656-6.00002-2.29461-6.00002C-1.02926-6.00002 0-5.01819 0-3.81147L0-0.285636C0-0.127944-0.134145 0-0.299479 0L-5.69184 0C-5.85717 0-5.99132-0.127944-5.99132-0.285636L-5.99132-3.81147C-5.99117-5.01819-4.96191-6.00002-3.69656-6.00002ZM-0.598958-0.571411-0.598958-3.81147C-0.598958-4.70322-1.3595-5.42861-2.29447-5.42861L-3.69642-5.42861C-4.63124-5.42861-5.39193-4.70322-5.39193-3.81147L-5.39193-0.571411-0.598958-0.571411Z" fill="#7C7C7B" fill-rule="evenodd" transform="matrix(-1.00145 -0 -0 1 374 180)"/><path d="M-3.25837-6.00004 0-2.737-2.23369-0.500096C-2.89953 0.166699-3.97912 0.166699-4.64496-0.500096L-5.49206-1.34842C-6.1579-2.01521-6.1579-3.09634-5.49206-3.76314L-3.25837-6.00004Z" fill="#6A4742" fill-rule="evenodd" transform="matrix(1.00145 8.75495e-08 8.74228e-08 -1 388 176)"/><path d="M-3.23812-6.99993C-3.17775-6.99993-3.11726-6.9731-3.07132-6.9193L-0.0691284-3.41163C0.0230807-3.30403 0.0230807-3.12949-0.0691284-3.02202L-2.12729-0.617422C-2.83188 0.205763-3.97795 0.205763-4.68254-0.617422L-5.46308-1.52934C-6.16755-2.3524-6.16755-3.69165-5.46308-4.5147L-3.40491-6.9193C-3.35887-6.9731-3.29849-6.99993-3.23812-6.99993ZM-0.569513-3.21676-3.23812-6.33469-5.12949-4.12483C-5.65-3.5167-5.65-2.52694-5.12949-1.91882L-4.34895-1.0069C-3.82844-0.398774-2.98139-0.398774-2.46077-1.0069L-0.569513-3.21676Z" fill="#7C7C7B" fill-rule="evenodd" transform="matrix(1.00145 8.75495e-08 8.74228e-08 -1 388 176)"/><path d="M-2.73307 0-5.99144-3.2631-3.75775-5.50004C-3.09191-6.16684-2.01232-6.16684-1.34649-5.50004L-0.499379-4.6517C0.16646-3.98489 0.16646-2.90374-0.499379-2.23694L-2.73307 0Z" fill="#FFFFFF" fill-rule="evenodd" transform="matrix(1.00145 8.75495e-08 8.74228e-08 -1 391 179)"/><path d="M-2.58652-6.00002C-2.12388-6.00002-1.66113-5.82376-1.30889-5.47091L-0.528355-4.68925C0.176118-3.98377 0.176118-2.83594-0.528355-2.13034L-2.58652-0.0692275C-2.6785 0.0231138-2.82801 0.0231138-2.91999-0.0692275L-5.9223-3.07573C-6.0144-3.16795-6.0144-3.31757-5.9223-3.40979L-3.86414-5.47079C-3.5119-5.82376-3.04927-6.00002-2.58652-6.00002ZM-2.7532-0.57033-0.861831-2.46452C-0.341321-2.98578-0.341321-3.83404-0.861831-4.35541L-1.64237-5.13707C-2.16299-5.65832-3.00993-5.65832-3.53066-5.13707L-5.42203-3.24299-2.7532-0.57033Z" fill="#7C7C7B" fill-rule="evenodd" transform="matrix(1.00145 8.75495e-08 8.74228e-08 -1 391 179)"/><path d="M-5.30294 0-5.30294-5.02391-1.85881-5.02391C-0.832208-5.02391 0-4.19154 0-3.16505L0-1.85899C0-0.832228-0.832343-0.000134534-1.85881-0.000134534L-5.30294-0.000134534-5.30294 0Z" fill="#6A4742" fill-rule="evenodd" transform="matrix(0.91247 -0.411481 -0.411087 -0.911596 383.217 184.779)"/><path d="M-5.58196-5.58194-2.13783-5.58194C-0.958937-5.58194 0-4.62285 0-3.44407L0-2.13788C0-0.958957-0.959072 0-2.13783 0L-5.58196 0C-5.736 0-5.86111-0.124982-5.86111-0.279023L-5.86111-5.30292C-5.86111-5.45696-5.73613-5.58194-5.58196-5.58194ZM-2.1381-0.558046C-1.26701-0.558046-0.558438-1.26664-0.558438-2.13774L-0.558438-3.44393C-0.558438-4.3149-1.26701-5.02349-2.1381-5.02349L-5.30308-5.02349-5.30308-0.557912-2.1381-0.557912-2.1381-0.558046Z" fill="#7C7C7B" fill-rule="evenodd" transform="matrix(0.91247 -0.411481 -0.411087 -0.911596 383.357 184.409)"/><path d="M0-5.02391 0 0-3.44413 0C-4.47073 0-5.30294-0.832362-5.30294-1.85886L-5.30294-3.16491C-5.30294-4.19168-4.4706-5.02377-3.44413-5.02377L0-5.02377 0-5.02391Z" fill="#FFFFFF" fill-rule="evenodd" transform="matrix(0.91247 -0.411481 -0.411087 -0.911596 378.378 186.961)"/><path d="M-3.72315-5.58208-0.279017-5.58208C-0.124979-5.58208 0-5.45696 0-5.30292L0-0.279023C0-0.124982-0.124979 0-0.279017 0L-3.72315 0C-4.90218 0-5.86111-0.959092-5.86111-2.13788L-5.86111-3.44407C-5.86111-4.62285-4.90218-5.58208-3.72315-5.58208ZM-0.558169-5.02376-3.72315-5.02376C-4.59423-5.02376-5.30281-4.31517-5.30281-3.44407L-5.30281-2.13801C-5.30281-1.26691-4.59423-0.558316-3.72315-0.558316L-0.558169-0.558316-0.558169-5.02376-0.558169-5.02376Z" fill="#7C7C7B" fill-rule="evenodd" transform="matrix(0.91247 -0.411481 -0.411087 -0.911596 378.518 186.591)"/><path d="M-22.6088-42.3622-2.1535-42.3622C-0.964113-42.3622 0-41.4 0-40.213L0-2.14912C0-0.962182-0.964113 0-2.1535 0L-22.6088 0C-23.7978 0-24.762-0.962182-24.762-2.14912L-24.762-40.213C-24.762-41.4-23.7978-42.3622-22.6088-42.3622Z" fill="#D0D0D0" fill-rule="evenodd" transform="matrix(0.866966 -0.499819 -0.499457 -0.866339 372.176 123.646)"/><path d="M-0.530605-2.11816C-0.237625-2.11816 0-1.88096 0-1.58861L0-0.529549C0-0.237196-0.237625 0-0.530605 0-0.823859 0-1.06125-0.237196-1.06125-0.529549L-1.06125-1.58861C-1.06125-1.88096-0.823859-2.11816-0.530605-2.11816Z" fill="#FFFFFF" fill-rule="evenodd" transform="matrix(0.866966 -0.499819 -0.499457 -0.866339 362.521 130.639)"/><path d="M-0.530605-33.454C-0.237625-33.454 0-33.2168 0-32.9244L0-30.7647C0-30.4723-0.237625-30.2352-0.530605-30.2352-0.823859-30.2352-1.06125-30.4723-1.06125-30.7647L-1.06125-32.9244C-1.06125-33.2168-0.823859-33.454-0.530605-33.454ZM-0.530605-29.1347C-0.237625-29.1347 0-28.8975 0-28.6052L0-26.4453C0-26.1531-0.237625-25.9158-0.530605-25.9158-0.823859-25.9158-1.06125-26.1531-1.06125-26.4453L-1.06125-28.6052C-1.06125-28.8975-0.823859-29.1347-0.530605-29.1347ZM-0.530605-24.8151C-0.237625-24.8151 0-24.5782 0-24.2856L0-22.1261C0-21.8337-0.237625-21.5965-0.530605-21.5965-0.823859-21.5965-1.06125-21.8337-1.06125-22.1261L-1.06125-24.2856C-1.06125-24.5782-0.823859-24.8151-0.530605-24.8151ZM-0.530605-20.4961C-0.237625-20.4961 0-20.2589 0-19.9666L0-17.8067C0-17.5144-0.237625-17.2772-0.530605-17.2772-0.823859-17.2772-1.06125-17.5144-1.06125-17.8067L-1.06125-19.9666C-1.06125-20.2589-0.823859-20.4961-0.530605-20.4961ZM-0.530605-16.1768C-0.237625-16.1768 0-15.9396 0-15.6473L0-13.4874C0-13.195-0.237625-12.9579-0.530605-12.9579-0.823859-12.9579-1.06125-13.195-1.06125-13.4874L-1.06125-15.6473C-1.06125-15.9396-0.823859-16.1768-0.530605-16.1768ZM-0.530605-11.8575C-0.237625-11.8575 0-11.6203 0-11.3279L0-9.16817C0-8.87579-0.237625-8.63863-0.530605-8.63863-0.823859-8.63863-1.06125-8.87579-1.06125-9.16817L-1.06125-11.3276C-1.06125-11.6203-0.823859-11.8575-0.530605-11.8575ZM-0.530605-7.5382C-0.237625-7.5382 0-7.30097 0-7.00866L0-4.8488C0-4.55653-0.237625-4.3193-0.530605-4.3193-0.823859-4.3193-1.06125-4.55653-1.06125-4.8488L-1.06125-7.00866C-1.06125-7.30097-0.823859-7.5382-0.530605-7.5382ZM-0.530605-3.21887C-0.237625-3.21887 0-2.98168 0-2.68937L0-0.529541C0-0.237192-0.237625 0-0.530605 0-0.823859 0-1.06125-0.237192-1.06125-0.529541L-1.06125-2.68937C-1.06125-2.98168-0.823859-3.21887-0.530605-3.21887Z" fill="#FFFFFF" fill-rule="evenodd" transform="matrix(0.866966 -0.499819 -0.499457 -0.866339 364.132 133.425)"/><path d="M-0.530605-2.11816C-0.237625-2.11816 0-1.881 0-1.58861L0-0.529549C0-0.237235-0.237625 0-0.530605 0-0.823859 0-1.06125-0.237235-1.06125-0.529549L-1.06125-1.58861C-1.06125-1.881-0.823859-2.11816-0.530605-2.11816Z" fill="#FFFFFF" fill-rule="evenodd" transform="matrix(0.866966 -0.499819 -0.499457 -0.866339 381.427 163.339)"/><path d="M-6.36735-3.53013-1.76873-3.53013C-0.791754-3.53013 0-2.74 0-1.76508 0-0.790129-0.791754 0-1.76873 0L-6.36735 0C-7.34421 0-8.13608-0.790129-8.13608-1.76508-8.13608-2.74-7.34421-3.53013-6.36735-3.53013Z" fill="#6A4742" fill-rule="evenodd" transform="matrix(0.866966 -0.499819 -0.499457 -0.866339 361.392 134.345)"/><path d="M-4.06802 0-1.76873 0C-0.791754 0 0-0.790129 0-1.76508 0-2.74-0.791754-3.53013-1.76873-3.53013L-4.06802-3.53013Z" fill="#FFFFFF" fill-rule="evenodd" transform="matrix(0.866966 -0.499819 -0.499457 -0.866339 361.392 134.345)"/><path d="M-6.36735-3.53013-1.76873-3.53013C-0.791754-3.53013 0-2.74 0-1.76508 0-0.790129-0.791754 0-1.76873 0L-6.36735 0C-7.34421 0-8.13608-0.790129-8.13608-1.76508-8.13608-2.74-7.34421-3.53013-6.36735-3.53013Z" fill="#6A4742" fill-rule="evenodd" transform="matrix(0.866966 -0.499819 -0.499457 -0.866339 365.28 141.069)"/><path d="M-4.06802 0-1.76873 0C-0.791754 0 0-0.790129 0-1.76508 0-2.74-0.791754-3.53013-1.76873-3.53013L-4.06802-3.53013Z" fill="#FFFFFF" fill-rule="evenodd" transform="matrix(0.866966 -0.499819 -0.499457 -0.866339 365.28 141.069)"/><path d="M-6.36735-3.53013-1.76873-3.53013C-0.791754-3.53013 0-2.74 0-1.76508 0-0.790129-0.791754 0-1.76873 0L-6.36735 0C-7.34421 0-8.13608-0.790129-8.13608-1.76508-8.13608-2.74-7.34421-3.53013-6.36735-3.53013Z" fill="#6A4742" fill-rule="evenodd" transform="matrix(0.866966 -0.499819 -0.499457 -0.866339 369.167 147.792)"/><path d="M-4.06802 0-1.76873 0C-0.791754 0 0-0.790129 0-1.76508 0-2.74-0.791754-3.53013-1.76873-3.53013L-4.06802-3.53013Z" fill="#FFFFFF" fill-rule="evenodd" transform="matrix(0.866966 -0.499819 -0.499457 -0.866339 369.167 147.792)"/><path d="M-6.36735-3.53013-1.76873-3.53013C-0.791754-3.53013 0-2.74 0-1.76508 0-0.790129-0.791754 0-1.76873 0L-6.36735 0C-7.34421 0-8.13608-0.790129-8.13608-1.76508-8.13608-2.74-7.34421-3.53013-6.36735-3.53013Z" fill="#6A4742" fill-rule="evenodd" transform="matrix(0.866966 -0.499819 -0.499457 -0.866339 373.055 154.516)"/><path d="M-4.06802 0-1.76873 0C-0.791754 0 0-0.790129 0-1.76508 0-2.74-0.791754-3.53013-1.76873-3.53013L-4.06802-3.53013Z" fill="#FFFFFF" fill-rule="evenodd" transform="matrix(0.866966 -0.499819 -0.499457 -0.866339 373.055 154.516)"/><path d="M-6.36735-3.53013-1.76873-3.53013C-0.791754-3.53013 0-2.74 0-1.76508 0-0.790129-0.791754 0-1.76873 0L-6.36735 0C-7.34421 0-8.13608-0.790129-8.13608-1.76508-8.13608-2.74-7.34421-3.53013-6.36735-3.53013Z" fill="#6A4742" fill-rule="evenodd" transform="matrix(0.866966 -0.499819 -0.499457 -0.866339 376.942 161.239)"/><path d="M-4.06802 0-1.76873 0C-0.791754 0 0-0.790129 0-1.76508 0-2.74-0.791754-3.53013-1.76873-3.53013L-4.06802-3.53013Z" fill="#FFFFFF" fill-rule="evenodd" transform="matrix(0.866966 -0.499819 -0.499457 -0.866339 376.942 161.239)"/><path d="M-6.36735-3.53013-1.76873-3.53013C-0.791754-3.53013 0-2.74 0-1.76508 0-0.790129-0.791754 0-1.76873 0L-6.36735 0C-7.34421 0-8.13604-0.790129-8.13604-1.76508-8.13604-2.74-7.34421-3.53013-6.36735-3.53013Z" fill="#6A4742" fill-rule="evenodd" transform="matrix(0.866966 -0.499819 -0.499457 -0.866339 372.433 127.98)"/><path d="M-4.06802 0-1.76873 0C-0.791754 0 0-0.790129 0-1.76508 0-2.74-0.791754-3.53013-1.76873-3.53013L-4.06802-3.53013Z" fill="#FFFFFF" fill-rule="evenodd" transform="matrix(0.866966 -0.499819 -0.499457 -0.866339 372.433 127.98)"/><path d="M-6.36735-3.53013-1.76873-3.53013C-0.791754-3.53013 0-2.74 0-1.76508 0-0.790129-0.791754 0-1.76873 0L-6.36735 0C-7.34421 0-8.13604-0.790129-8.13604-1.76508-8.13604-2.74-7.34421-3.53013-6.36735-3.53013Z" fill="#6A4742" fill-rule="evenodd" transform="matrix(0.866966 -0.499819 -0.499457 -0.866339 376.32 134.704)"/><path d="M-4.06802 0-1.76873 0C-0.791754 0 0-0.790129 0-1.76508 0-2.74-0.791754-3.53013-1.76873-3.53013L-4.06802-3.53013Z" fill="#FFFFFF" fill-rule="evenodd" transform="matrix(0.866966 -0.499819 -0.499457 -0.866339 376.32 134.704)"/><path d="M-6.36735-3.53013-1.76873-3.53013C-0.791754-3.53013 0-2.74 0-1.76508 0-0.790129-0.791754 0-1.76873 0L-6.36735 0C-7.34421 0-8.13604-0.790129-8.13604-1.76508-8.13604-2.74-7.34421-3.53013-6.36735-3.53013Z" fill="#6A4742" fill-rule="evenodd" transform="matrix(0.866966 -0.499819 -0.499457 -0.866339 380.208 141.427)"/><path d="M-4.06802 0-1.76873 0C-0.791754 0 0-0.790129 0-1.76508 0-2.74-0.791754-3.53013-1.76873-3.53013L-4.06802-3.53013Z" fill="#FFFFFF" fill-rule="evenodd" transform="matrix(0.866966 -0.499819 -0.499457 -0.866339 380.208 141.427)"/><path d="M-6.36735-3.53013-1.76873-3.53013C-0.791754-3.53013 0-2.74 0-1.76508 0-0.790129-0.791754 0-1.76873 0L-6.36735 0C-7.34421 0-8.13604-0.790129-8.13604-1.76508-8.13604-2.74-7.34421-3.53013-6.36735-3.53013Z" fill="#6A4742" fill-rule="evenodd" transform="matrix(0.866966 -0.499819 -0.499457 -0.866339 384.095 148.151)"/><path d="M-4.06802 0-1.76873 0C-0.791754 0 0-0.790129 0-1.76508 0-2.74-0.791754-3.53013-1.76873-3.53013L-4.06802-3.53013Z" fill="#FFFFFF" fill-rule="evenodd" transform="matrix(0.866966 -0.499819 -0.499457 -0.866339 384.095 148.151)"/><path d="M-6.36735-3.53013-1.76873-3.53013C-0.791754-3.53013 0-2.74 0-1.76508 0-0.790129-0.791754 0-1.76873 0L-6.36735 0C-7.34421 0-8.13604-0.790129-8.13604-1.76508-8.13604-2.74-7.34421-3.53013-6.36735-3.53013Z" fill="#6A4742" fill-rule="evenodd" transform="matrix(0.866966 -0.499819 -0.499457 -0.866339 387.983 154.874)"/><path d="M-4.06802 0-1.76873 0C-0.791754 0 0-0.790129 0-1.76508 0-2.74-0.791754-3.53013-1.76873-3.53013L-4.06802-3.53013Z" fill="#FFFFFF" fill-rule="evenodd" transform="matrix(0.866966 -0.499819 -0.499457 -0.866339 387.983 154.874)"/><path d="M1.43654 0C0.996784 0 0 1.05305 0 1.55032 0 2.07684 0.996784 3.10063 1.58313 3.10063 1.84698 3.10063 2.25742 2.86662 2.55059 2.63261 2.84376 2.36935 3.0783 1.87208 3.0783 1.49181 3.0783 0.877537 2.14015 0 1.43654 0Z" fill="#FEFEFE" fill-rule="evenodd" transform="matrix(0.997627 0.0871548 -0.0870306 0.996206 327.916 137.093)"/><path d="M9.03126 33.9509 32.0789 10.1871C33.3072 8.92073 33.3072 6.90933 32.0789 5.71742L27.4549 0.949775C26.2267-0.316592 24.2759-0.316592 23.1199 0.949775L0 24.7136 9.03126 33.9509Z" fill="#D0D0D0" fill-rule="evenodd" transform="matrix(-4.37114e-08 -1 -1.00145 4.37747e-08 436 195)"/><path d="M7.62746 30.9552 30.0739 8.48857C31.3088 7.25258 31.3088 5.28944 30.0739 4.12612L26.8776 0.926992C25.6427-0.308997 23.6813-0.308997 22.5191 0.926992L0 23.3936 7.62746 30.9552Z" fill="#F7F4F2" fill-rule="evenodd" transform="matrix(-4.37114e-08 -1 -1.00145 4.37747e-08 434 194)"/><path d="M7.84088 16.9754 17.0388 8.30104C18.3205 7.09236 18.3205 5.17259 17.0388 4.03497L13.7215 0.906513C12.4399-0.302171 10.4042-0.302171 9.19795 0.906513L0 9.5098 7.84088 16.9754Z" fill="#D0D0D0" fill-rule="evenodd" transform="matrix(-4.37114e-08 -1 -1.00145 4.37747e-08 434 181)"/><path d="M11.2667 0.45816 0 12.294 0.650041 12.9812 13.0001 0Z" fill="#D0D0D0" fill-rule="evenodd" transform="matrix(-4.37114e-08 -1 -1.00145 4.37747e-08 446 164)"/><path d="M1.72229 0 0 1.99707 1.55559 3.99421 3.00006 1.77521Z" fill="#D0D0D0" fill-rule="evenodd" transform="matrix(-4.37114e-08 -1 -1.00145 4.37747e-08 435 166)"/><path d="M0 0 34.8059 0 34.8059 7.36986 0 7.36986Z" fill="#D0D0D0" fill-rule="evenodd" transform="matrix(0.707619 -0.706595 -0.706595 -0.707619 398.193 204.377)"/><path d="M0 0 2.69978 0 2.69978 12.8425 0 12.8425Z" fill="#D0D0D0" fill-rule="evenodd" transform="matrix(0.707619 -0.706595 -0.706595 -0.707619 399.318 207.16)"/><path d="M0 0 2.69978 0 2.69978 10.7263 0 10.7263Z" fill="#D0D0D0" fill-rule="evenodd" transform="matrix(0.707619 -0.706595 -0.706595 -0.707619 423.187 181.829)"/><path d="M0 0 0.510706 0 0.510706 6.05637 0 6.05637Z" fill="#FFFFFF" fill-rule="evenodd" transform="matrix(0.707519 -0.706695 -0.706695 -0.707519 432.287 169.433)"/><path d="M3.57449 2.99573 0 0.318724 0.340427 0 3.99998 2.677Z" fill="#FFFFFF" fill-rule="evenodd" transform="matrix(-4.37114e-08 -1 -1.00145 4.37747e-08 431 170)"/><path d="M0 0 0.510706 0 0.510706 4.37804 0 4.37804Z" fill="#FFFFFF" fill-rule="evenodd" transform="matrix(0.707619 -0.706595 -0.706595 -0.707619 429.952 170.578)"/><path d="M0 0 0.510706 0 0.510706 4.37804 0 4.37804Z" fill="#FFFFFF" fill-rule="evenodd" transform="matrix(0.707619 -0.706595 -0.706595 -0.707619 429.068 171.433)"/><path d="M0 0 0.510706 0 0.510706 4.37804 0 4.37804Z" fill="#FFFFFF" fill-rule="evenodd" transform="matrix(0.707619 -0.706595 -0.706595 -0.707619 428.234 172.237)"/><path d="M0 0 0.510783 0 0.510783 6.05682 0 6.05682Z" fill="#FFFFFF" fill-rule="evenodd" transform="matrix(0.707569 -0.706645 -0.706645 -0.707569 427.971 173.709)"/><path d="M0 0-0.510706 0-0.510706-4.37804 0-4.37804Z" fill="#FFFFFF" fill-rule="evenodd" transform="matrix(-0.707719 0.706495 0.706495 0.707718 426.519 174)"/><path d="M0 0 0.510706 0 0.510706 4.37804 0 4.37804Z" fill="#FFFFFF" fill-rule="evenodd" transform="matrix(0.707619 -0.706595 -0.706595 -0.707619 425.634 174.855)"/><path d="M0 0 0.510706 0 0.510706 4.37804 0 4.37804Z" fill="#FFFFFF" fill-rule="evenodd" transform="matrix(0.707619 -0.706595 -0.706595 -0.707619 424.801 175.66)"/><path d="M0 0 0.510706 0 0.510706 4.37804 0 4.37804Z" fill="#FFFFFF" fill-rule="evenodd" transform="matrix(0.707619 -0.706595 -0.706595 -0.707619 423.916 176.515)"/><path d="M0 0 0.510706 0 0.510706 6.05638 0 6.05638Z" fill="#FFFFFF" fill-rule="evenodd" transform="matrix(0.707619 -0.706595 -0.706595 -0.707619 423.651 177.989)"/><path d="M2.74471 3.9943 0 0.424965 0.319181 0 3.00002 3.65427Z" fill="#FFFFFF" fill-rule="evenodd" transform="matrix(-4.37114e-08 -1 -1.00145 4.37747e-08 423 178)"/><path d="M0 0 0.510706 0 0.510706 4.37804 0 4.37804Z" fill="#FFFFFF" fill-rule="evenodd" transform="matrix(0.707519 -0.706695 -0.706695 -0.707519 421.366 179.08)"/><path d="M0 0 0.510706 0 0.510706 4.37804 0 4.37804Z" fill="#FFFFFF" fill-rule="evenodd" transform="matrix(0.707619 -0.706595 -0.706595 -0.707619 420.533 179.988)"/><path d="M0 0 0.510706 0 0.510706 4.37804 0 4.37804Z" fill="#FFFFFF" fill-rule="evenodd" transform="matrix(0.707519 -0.706695 -0.706695 -0.707519 419.648 180.843)"/><path d="M0 0 0.510706 0 0.510706 6.05638 0 6.05638Z" fill="#FFFFFF" fill-rule="evenodd" transform="matrix(0.707619 -0.706595 -0.706595 -0.707619 419.436 182.266)"/><path d="M0 0 0.510706 0 0.510706 4.37804 0 4.37804Z" fill="#FFFFFF" fill-rule="evenodd" transform="matrix(0.707619 -0.706595 -0.706595 -0.707619 417.932 182.503)"/><path d="M0 0 0.510706 0 0.510706 4.37804 0 4.37804Z" fill="#FFFFFF" fill-rule="evenodd" transform="matrix(0.707619 -0.706595 -0.706595 -0.707619 417.099 183.41)"/><path d="M0 0 0.510706 0 0.510706 4.37804 0 4.37804Z" fill="#FFFFFF" fill-rule="evenodd" transform="matrix(0.707619 -0.706595 -0.706595 -0.707619 416.215 184.265)"/><path d="M0 0-0.510706 0-0.510706-4.37804 0-4.37804Z" fill="#FFFFFF" fill-rule="evenodd" transform="matrix(-0.707819 0.706395 0.706394 0.707818 415.384 185.069)"/><path d="M0 0 0.510706 0 0.510706 6.05638 0 6.05638Z" fill="#FFFFFF" fill-rule="evenodd" transform="matrix(0.707619 -0.706595 -0.706595 -0.707619 415.118 186.543)"/><path d="M0 0 0.510706 0 0.510706 4.37804 0 4.37804Z" fill="#FFFFFF" fill-rule="evenodd" transform="matrix(0.707519 -0.706695 -0.706695 -0.707519 413.665 186.831)"/><path d="M3.65955 2.99573 0 0.318724 0.425579 0 3.99998 2.74077Z" fill="#FFFFFF" fill-rule="evenodd" transform="matrix(-4.37114e-08 -1 -1.00145 4.37747e-08 413 188)"/><path d="M0 0 0.510706 0 0.510706 4.37804 0 4.37804Z" fill="#FFFFFF" fill-rule="evenodd" transform="matrix(0.707619 -0.706595 -0.706595 -0.707619 411.948 188.491)"/><path d="M0 0 0.510706 0 0.510706 4.37804 0 4.37804Z" fill="#FFFFFF" fill-rule="evenodd" transform="matrix(0.707519 -0.706695 -0.706695 -0.707519 411.115 189.398)"/><path d="M0 0-0.510783 0-0.510783-6.05682 0-6.05682Z" fill="#FFFFFF" fill-rule="evenodd" transform="matrix(-0.707669 0.706545 0.706545 0.707669 410.798 190.818)"/><path d="M0 0 3.3566 0 3.3566 15.6882 0 15.6882Z" fill="#D0D0D0" fill-rule="evenodd" transform="matrix(0.707619 -0.706595 -0.706595 -0.707619 410.711 197.776)"/><path d="M0 0-1.09454 0-1.09454-15.6882 0-15.6882Z" fill="#D0D0D0" fill-rule="evenodd" transform="matrix(-0.707919 0.706295 0.706294 0.707918 410.726 197.753)"/><path d="M46.8269 0C9.59568 0 9.59568 0 9.59568 0 0 0 0 0 0 0 0 26.7633 0 26.7633 0 26.7633 9.59568 26.7633 9.59568 26.7633 9.59568 26.7633 46.8269 26.7633 46.8269 26.7633 46.8269 26.7633 56.4226 26.7633 56.4226 26.7633 56.4226 26.7633 56.4226 0 56.4226 0 56.4226 0L46.8269 0ZM53.9661 18.2682C50.7419 18.2682 48.1319 20.8242 48.1319 24.0569 46.8269 24.0569 46.8269 24.0569 46.8269 24.0569 38.5362 24.0569 38.5362 24.0569 38.5362 24.0569 32.1647 24.0569 32.1647 24.0569 32.1647 24.0569 30.9365 24.5831 29.6315 24.8838 28.1729 24.8838 26.7911 24.8838 25.4861 24.5831 24.2579 24.0569 17.8863 24.0569 17.8863 24.0569 17.8863 24.0569 9.59568 24.0569 9.59568 24.0569 9.59568 24.0569 8.29067 24.0569 8.29067 24.0569 8.29067 24.0569 8.29067 20.8242 5.60388 18.2682 2.37973 18.2682 2.37973 8.49508 2.37973 8.49508 2.37973 8.49508 5.60388 8.49508 8.29067 5.93904 8.29067 2.78157 9.59568 2.78157 9.59568 2.78157 9.59568 2.78157 17.8863 2.78157 17.8863 2.78157 17.8863 2.78157 24.2579 2.78157 24.2579 2.78157 24.2579 2.78157 25.4861 2.18015 26.7911 1.87944 28.1729 1.87944 29.6315 1.87944 30.9365 2.18015 32.1647 2.78157 38.5362 2.78157 38.5362 2.78157 38.5362 2.78157 46.8269 2.78157 46.8269 2.78157 46.8269 2.78157 48.1319 2.78157 48.1319 2.78157 48.1319 2.78157 48.1319 5.93904 50.7419 8.49508 53.9661 8.49508L53.9661 18.2682Z" fill="#6A4742" fill-rule="evenodd" transform="matrix(0.866966 0.499819 -0.499457 0.866339 366.488 68.4561)"/><path d="M0 12.3485C-3.11314e-15 5.5286 5.4739 0 12.2263 0 18.9787-3.14425e-15 24.4526 5.5286 24.4526 12.3485 24.4526 19.1683 18.9787 24.6969 12.2263 24.6969 5.4739 24.6969-4.66971e-15 19.1683 0 12.3485Z" fill="#6A4742" fill-rule="evenodd" transform="matrix(0.866966 0.499819 -0.499457 0.866339 379.691 77.5793)"/><g clip-path="url(#clip1)"><g clip-path="url(#clip2)"><g clip-path="url(#clip3)"><path d="M11.2828 3.14613C11.2237 3.08696 11.148 3.05742 11.0561 3.05742L9.36962 3.05742C9.25776 2.51187 9.04736 2.03831 8.73836 1.63725L11.0362 1.63725C11.1284 1.63725 11.2039 1.60768 11.2632 1.54864 11.322 1.4895 11.3516 1.41382 11.3516 1.32179L11.3516 0.315594C11.3516 0.2235 11.3221 0.147952 11.2632 0.0887436 11.2038 0.0296733 11.1284 0 11.0362 0L2.83057 0C2.73848 0 2.66293 0.0296733 2.60372 0.0887091 2.54469 0.147918 2.51501 0.223465 2.51501 0.31556L2.51501 1.62727C2.51501 1.71273 2.54624 1.78669 2.6087 1.84914 2.67115 1.9116 2.74511 1.94283 2.83057 1.94283L4.26066 1.94283C5.64791 1.94283 6.52899 2.31421 6.90373 3.05725L2.83057 3.05725C2.73848 3.05725 2.66283 3.08679 2.60372 3.14596 2.54469 3.2052 2.51501 3.28072 2.51501 3.37281L2.51501 4.37887C2.51501 4.4709 2.54455 4.54655 2.60372 4.60558 2.66293 4.66483 2.73862 4.69429 2.83057 4.69429L7.04201 4.69429C6.89734 5.23359 6.56033 5.64446 6.03097 5.9272 5.50159 6.20998 4.80314 6.35137 3.93519 6.35137L2.83057 6.35137C2.74511 6.35137 2.67115 6.38263 2.6087 6.44505 2.54621 6.50754 2.51501 6.58154 2.51501 6.66693L2.51501 7.9196C2.51501 8.0052 2.54455 8.0775 2.60372 8.1366 3.86606 9.47788 5.50331 11.3549 7.51526 13.7681 7.5745 13.8471 7.65665 13.8865 7.76187 13.8865L9.68501 13.8865C9.82322 13.8865 9.91863 13.8275 9.97107 13.7089 10.0368 13.5906 10.0239 13.4788 9.93158 13.3735 8.0119 11.0196 6.50281 9.25752 5.40476 8.08721 6.52253 7.95573 7.4299 7.59402 8.1269 7.00239 8.82379 6.41068 9.24782 5.64125 9.39915 4.69446L11.0561 4.69446C11.148 4.69446 11.2237 4.66496 11.2828 4.60576 11.342 4.54672 11.3717 4.47107 11.3717 4.37904L11.3717 3.37309C11.3717 3.28089 11.342 3.20534 11.2828 3.14613Z" fill="#FFFFFF" transform="matrix(0.866339 0.499457 -0.504082 0.874361 382.281 85.8553)"/></g></g></g><rect x="0" y="0" width="43.222" height="26.2997" fill="#D68D87" transform="matrix(0.914713 -0.406498 0.406104 0.913827 346.534 40.37)"/><path d="M0 3.20234 3.20234 3.20234 3.20234 0 5.74023 0 5.74023 3.20234 8.94257 3.20234 8.94257 5.74023 5.74023 5.74023 5.74023 8.94257 3.20234 8.94257 3.20234 5.74023 0 5.74023Z" fill="#FFFFFF" fill-rule="evenodd" transform="matrix(0.940895 -0.341962 0.341583 0.939852 364.632 37.6032)"/><rect x="0" y="0" width="43.5122" height="4.79416" fill="#6A4742" transform="matrix(0.910155 -0.416546 0.416152 0.909295 353.469 56.4456)"/><path d="M0 2.60285 1.50762 4.15486C2.41527 5.54521 2.3486 6.53677 2.75884 7.72234 2.97421 8.79473 3.54342 9.41446 3.97417 9.91024L15.5121 22.0353C16.2761 22.9676 17.5684 22.9999 18.235 22.6443 19.4914 21.5988 20.8657 20.2516 21.7784 18.9205 21.9682 16.9374 21.6246 17.0775 21.281 16.5117L9.41493 3.99859C8.89188 3.31958 8.3278 3.13097 7.89192 2.93697 6.78429 2.61363 5.67665 2.45196 4.56901 1.88612 3.62034 1.2179 3.24087 0.630505 2.57936 0L0 2.60285Z" fill="#7C7C7B" fill-rule="evenodd" transform="matrix(1.00145 0 -0 1 481 77)"/><path d="M23.9128 2.83579C12.6134 2.83579 3.45339 12.1231 3.45339 23.5797 3.45339 35.0363 12.6134 44.3237 23.9128 44.3237 35.2123 44.3237 44.3723 35.0363 44.3723 23.5797 44.3723 12.1231 35.2123 2.83579 23.9128 2.83579ZM23.9653 0C37.2009 0 47.9305 10.7451 47.9305 24 47.9305 37.2548 37.2009 47.9999 23.9653 47.9999 10.7296 47.9999 0 37.2548 0 24 0 10.7451 10.7296 0 23.9653 0Z" fill="#7C7C7B" fill-rule="evenodd" transform="matrix(1.00145 0 -0 1 442 38)"/><path d="M46.8145 0C9.59313 0 9.59313 0 9.59313 0 0 0 0 0 0 0 0 26.7562 0 26.7562 0 26.7562 9.59313 26.7562 9.59313 26.7562 9.59313 26.7562 46.8145 26.7562 46.8145 26.7562 46.8145 26.7562 56.4076 26.7562 56.4076 26.7562 56.4076 26.7562 56.4076 0 56.4076 0 56.4076 0L46.8145 0ZM53.9518 18.2633C50.7285 18.2633 48.1192 20.8187 48.1192 24.0505 46.8145 24.0505 46.8145 24.0505 46.8145 24.0505 38.526 24.0505 38.526 24.0505 38.526 24.0505 32.1562 24.0505 32.1562 24.0505 32.1562 24.0505 30.9283 24.5766 29.6236 24.8772 28.1654 24.8772 26.784 24.8772 25.4794 24.5766 24.2514 24.0505 17.8816 24.0505 17.8816 24.0505 17.8816 24.0505 9.59313 24.0505 9.59313 24.0505 9.59313 24.0505 8.28847 24.0505 8.28847 24.0505 8.28847 24.0505 8.28847 20.8187 5.60239 18.2633 2.3791 18.2633 2.3791 8.49283 2.3791 8.49283 2.3791 8.49283 5.60239 8.49283 8.28847 5.93746 8.28847 2.78084 9.59313 2.78084 9.59313 2.78084 9.59313 2.78084 17.8816 2.78084 17.8816 2.78084 17.8816 2.78084 24.2514 2.78084 24.2514 2.78084 24.2514 2.78084 25.4794 2.17957 26.784 1.87894 28.1654 1.87894 29.6236 1.87894 30.9283 2.17957 32.1562 2.78084 38.526 2.78084 38.526 2.78084 38.526 2.78084 46.8145 2.78084 46.8145 2.78084 46.8145 2.78084 48.1192 2.78084 48.1192 2.78084 48.1192 2.78084 48.1192 5.93746 50.7285 8.49283 53.9518 8.49283L53.9518 18.2633Z" fill="#6A4742" fill-rule="evenodd" transform="matrix(0.967232 0.258794 -0.25847 0.966019 86.3439 104.488)"/><path d="M0 12.3452C-3.11232e-15 5.52713 5.47245 0 12.2231 0 18.9737-3.14342e-15 24.4461 5.52713 24.4461 12.3452 24.4461 19.1633 18.9737 24.6904 12.2231 24.6904 5.47245 24.6904-4.66847e-15 19.1633 0 12.3452Z" fill="#6A4742" fill-rule="evenodd" transform="matrix(0.967232 0.258794 -0.25847 0.966019 101.462 109.889)"/><g clip-path="url(#clip4)"><g clip-path="url(#clip5)"><g clip-path="url(#clip6)"><path d="M11.2858 3.14697C11.2266 3.08778 11.151 3.05823 11.059 3.05823L9.3721 3.05823C9.26022 2.51253 9.04975 2.03884 8.74067 1.63768L11.0392 1.63768C11.1314 1.63768 11.2068 1.6081 11.2662 1.54905 11.325 1.4899 11.3546 1.41419 11.3546 1.32214L11.3546 0.315678C11.3546 0.223559 11.3251 0.147991 11.2662 0.0887671 11.2068 0.0296812 11.1313 0 11.0391 0L2.83132 0C2.7392 0 2.66364 0.0296812 2.60441 0.0887326 2.54536 0.147957 2.51568 0.223524 2.51568 0.315643L2.51568 1.6277C2.51568 1.71318 2.54691 1.78716 2.60939 1.84963 2.67186 1.9121 2.74584 1.94334 2.83132 1.94334L4.26179 1.94334C5.64941 1.94334 6.53072 2.31482 6.90556 3.05806L2.83132 3.05806C2.7392 3.05806 2.66353 3.0876 2.60441 3.14679 2.54536 3.20605 2.51568 3.28158 2.51568 3.3737L2.51568 4.38003C2.51568 4.47208 2.54522 4.54775 2.60441 4.6068 2.66364 4.66606 2.73934 4.69554 2.83132 4.69554L7.04387 4.69554C6.89916 5.23498 6.56206 5.64595 6.03257 5.92877 5.50304 6.21163 4.80441 6.35305 3.93623 6.35305L2.83132 6.35305C2.74584 6.35305 2.67186 6.38432 2.60939 6.44676 2.54688 6.50927 2.51568 6.58328 2.51568 6.66869L2.51568 7.9217C2.51568 8.00732 2.54522 8.07964 2.60441 8.13876 3.86709 9.48039 5.50477 11.3579 7.51725 13.7718 7.57651 13.8508 7.65868 13.8902 7.76393 13.8902L9.68757 13.8902C9.82582 13.8902 9.92125 13.8312 9.97371 13.7125 10.0395 13.5942 10.0266 13.4823 9.93421 13.3771 8.01402 11.0225 6.50453 9.25998 5.40619 8.08935 6.52426 7.95784 7.43187 7.59603 8.12905 7.00424 8.82613 6.41238 9.25027 5.64274 9.40164 4.69571L11.059 4.69571C11.151 4.69571 11.2267 4.6662 11.2858 4.60698 11.345 4.54792 11.3747 4.47225 11.3747 4.3802L11.3747 3.37398C11.3747 3.28176 11.345 3.20619 11.2858 3.14697Z" fill="#FFFFFF" transform="matrix(0.966019 0.258469 -0.260725 0.974448 106.109 117.213)"/></g></g></g><path d="M46.8145 0C9.59313 0 9.59313 0 9.59313 0 0 0 0 0 0 0 0 26.7562 0 26.7562 0 26.7562 9.59313 26.7562 9.59313 26.7562 9.59313 26.7562 46.8145 26.7562 46.8145 26.7562 46.8145 26.7562 56.4076 26.7562 56.4076 26.7562 56.4076 26.7562 56.4076 0 56.4076 0 56.4076 0L46.8145 0ZM53.9518 18.2633C50.7285 18.2633 48.1192 20.8187 48.1192 24.0505 46.8145 24.0505 46.8145 24.0505 46.8145 24.0505 38.526 24.0505 38.526 24.0505 38.526 24.0505 32.1562 24.0505 32.1562 24.0505 32.1562 24.0505 30.9283 24.5766 29.6236 24.8772 28.1654 24.8772 26.784 24.8772 25.4794 24.5766 24.2514 24.0505 17.8816 24.0505 17.8816 24.0505 17.8816 24.0505 9.59313 24.0505 9.59313 24.0505 9.59313 24.0505 8.28847 24.0505 8.28847 24.0505 8.28847 24.0505 8.28847 20.8187 5.60239 18.2633 2.3791 18.2633 2.3791 8.49283 2.3791 8.49283 2.3791 8.49283 5.60239 8.49283 8.28847 5.93746 8.28847 2.78084 9.59313 2.78084 9.59313 2.78084 9.59313 2.78084 17.8816 2.78084 17.8816 2.78084 17.8816 2.78084 24.2514 2.78084 24.2514 2.78084 24.2514 2.78084 25.4794 2.17957 26.784 1.87894 28.1654 1.87894 29.6236 1.87894 30.9283 2.17957 32.1562 2.78084 38.526 2.78084 38.526 2.78084 38.526 2.78084 46.8145 2.78084 46.8145 2.78084 46.8145 2.78084 48.1192 2.78084 48.1192 2.78084 48.1192 2.78084 48.1192 5.93746 50.7285 8.49283 53.9518 8.49283L53.9518 18.2633Z" fill="#6A4742" fill-rule="evenodd" transform="matrix(0.967232 -0.258794 0.25847 0.966019 83.0001 96.8453)"/><path d="M0 12.3452C-3.11232e-15 5.52713 5.47245 0 12.2231 0 18.9737-3.14342e-15 24.4461 5.52713 24.4461 12.3452 24.4461 19.1633 18.9737 24.6904 12.2231 24.6904 5.47245 24.6904-4.66847e-15 19.1633 0 12.3452Z" fill="#6A4742" fill-rule="evenodd" transform="matrix(0.967232 -0.258794 0.25847 0.966019 98.7965 93.974)"/><g clip-path="url(#clip7)"><g clip-path="url(#clip8)"><g clip-path="url(#clip9)"><path d="M11.2858 3.14697C11.2266 3.08778 11.151 3.05823 11.059 3.05823L9.3721 3.05823C9.26022 2.51253 9.04975 2.03884 8.74067 1.63768L11.0392 1.63768C11.1314 1.63768 11.2068 1.6081 11.2662 1.54905 11.325 1.4899 11.3546 1.41419 11.3546 1.32214L11.3546 0.315678C11.3546 0.223559 11.3251 0.147991 11.2662 0.0887671 11.2068 0.0296812 11.1313 0 11.0391 0L2.83132 0C2.7392 0 2.66364 0.0296812 2.60441 0.0887326 2.54536 0.147957 2.51568 0.223524 2.51568 0.315643L2.51568 1.6277C2.51568 1.71318 2.54691 1.78716 2.60939 1.84963 2.67186 1.9121 2.74584 1.94334 2.83132 1.94334L4.26179 1.94334C5.64941 1.94334 6.53072 2.31482 6.90556 3.05806L2.83132 3.05806C2.7392 3.05806 2.66353 3.0876 2.60441 3.14679 2.54536 3.20605 2.51568 3.28158 2.51568 3.3737L2.51568 4.38003C2.51568 4.47208 2.54522 4.54775 2.60441 4.6068 2.66364 4.66606 2.73934 4.69554 2.83132 4.69554L7.04387 4.69554C6.89916 5.23498 6.56206 5.64595 6.03257 5.92877 5.50304 6.21163 4.80441 6.35305 3.93623 6.35305L2.83132 6.35305C2.74584 6.35305 2.67186 6.38432 2.60939 6.44676 2.54688 6.50927 2.51568 6.58328 2.51568 6.66869L2.51568 7.9217C2.51568 8.00732 2.54522 8.07964 2.60441 8.13876 3.86709 9.48039 5.50477 11.3579 7.51725 13.7718 7.57651 13.8508 7.65868 13.8902 7.76393 13.8902L9.68757 13.8902C9.82582 13.8902 9.92125 13.8312 9.97371 13.7125 10.0395 13.5942 10.0266 13.4823 9.93421 13.3771 8.01402 11.0225 6.50453 9.25998 5.40619 8.08935 6.52426 7.95784 7.43187 7.59603 8.12905 7.00424 8.82613 6.41238 9.25027 5.64274 9.40164 4.69571L11.059 4.69571C11.151 4.69571 11.2267 4.6662 11.2858 4.60698 11.345 4.54792 11.3747 4.47225 11.3747 4.3802L11.3747 3.37398C11.3747 3.28176 11.345 3.20619 11.2858 3.14697Z" fill="#FFFFFF" transform="matrix(0.966019 -0.258469 0.260725 0.974448 106.488 97.9972)"/></g></g></g><path d="M-6.99006-7.00022 0-7.00022 0-2.45375C0-1.09857-1.15811 0-2.58634 0L-4.40353 0C-5.83213 0-6.98987-1.09875-6.98987-2.45375L-6.98987-7.00022-6.99006-7.00022Z" fill="#6A4742" fill-rule="evenodd" transform="matrix(-1.00145 -0 -0 1 158 98)"/><path d="M-6.64047-8.00024-0.349401-8.00024C-0.156506-8.00024 0-7.82947 0-7.61921L0-2.91808C0-1.30892-1.201 0-2.67711 0L-4.31276 0C-5.78887 0-6.98987-1.3091-6.98987-2.91808L-6.98987-7.61921C-6.99004-7.82947-6.8337-8.00024-6.64047-8.00024ZM-0.69897-7.23818-6.2909-7.23818-6.2909-2.91808C-6.2909-1.72925-5.40358-0.761884-4.31276-0.761884L-2.67728-0.761884C-1.58645-0.761884-0.699139-1.72925-0.699139-2.91808L-0.699139-7.23818-0.69897-7.23818Z" fill="#7C7C7B" fill-rule="evenodd" transform="matrix(-1.00145 -0 -0 1 158 99)"/><path d="M0 0-6.99006 0-6.99006-4.5464C-6.99006-5.90156-5.83194-7.00011-4.40372-7.00011L-2.58653-7.00011C-1.15793-7.00011-0.000187185-5.90138-0.000187185-4.5464L-0.000187185 0 0 0Z" fill="#FFFFFF" fill-rule="evenodd" transform="matrix(-1.00145 -0 -0 1 158 91)"/><path d="M-4.31265-7.99995-2.67705-7.99995C-1.2008-7.99995 0-6.69087 0-5.08192L0-0.380845C0-0.170591-0.156502 0-0.349392 0L-6.64048 0C-6.83337 0-6.98987-0.170591-6.98987-0.380845L-6.98987-5.08192C-6.9897-6.69087-5.7889-7.99995-4.31265-7.99995ZM-0.698785-0.761874-0.698785-5.08192C-0.698785-6.27091-1.58608-7.23808-2.67688-7.23808L-4.31249-7.23808C-5.40312-7.23808-6.29058-6.27091-6.29058-5.08192L-6.29058-0.761874-0.698785-0.761874Z" fill="#7C7C7B" fill-rule="evenodd" transform="matrix(-1.00145 -0 -0 1 158 92)"/><path d="M-4.34449-8.00012 0-3.64936-2.97826-0.6668C-3.86605 0.222267-5.30549 0.222267-6.19327-0.6668L-7.32275-1.79791C-8.21053-2.68697-8.21053-4.12849-7.32275-5.01756L-4.34449-8.00012Z" fill="#6A4742" fill-rule="evenodd" transform="matrix(1.00145 8.75495e-08 8.74228e-08 -1 182 98)"/><path d="M-4.85718-8.99998C-4.76662-8.99998-4.67589-8.96548-4.60699-8.89631L-0.103693-4.38641C0.034621-4.24807 0.034621-4.02365-0.103693-3.88548L-3.19093-0.793834C-4.24781 0.264554-5.96693 0.264554-7.02381-0.793834L-8.19461-1.96631C-9.25132-3.02453-9.25132-4.74644-8.19461-5.80466L-5.10737-8.89631C-5.0383-8.96548-4.94774-8.99998-4.85718-8.99998ZM-0.85427-4.13586-4.85718-8.14466-7.69423-5.30339C-8.47499-4.52151-8.47499-3.24895-7.69423-2.46707L-6.52342-1.29459C-5.74266-0.512713-4.47208-0.512713-3.69115-1.29459L-0.85427-4.13586Z" fill="#7C7C7B" fill-rule="evenodd" transform="matrix(1.00145 8.75495e-08 8.74228e-08 -1 183 97)"/><path d="M-3.6441 0-7.98859-4.35082-5.01033-7.33342C-4.12254-8.22249-2.6831-8.22249-1.79531-7.33342L-0.665839-6.20229C0.221946-5.31322 0.221946-3.87168-0.665839-2.9826L-3.6441 0Z" fill="#FFFFFF" fill-rule="evenodd" transform="matrix(1.00145 8.75495e-08 8.74228e-08 -1 186 101)"/><path d="M-3.44869-8.99998C-2.83184-8.99998-2.21484-8.73559-1.74519-8.20631L-0.704473-7.03383C0.234824-5.97562 0.234824-4.25388-0.704473-3.19549L-3.44869-0.103841C-3.57133 0.0346705-3.77068 0.0346705-3.89332-0.103841L-7.8964-4.61356C-8.0192-4.7519-8.0192-4.97632-7.8964-5.11466L-5.15219-8.20614C-4.68254-8.73559-4.06569-8.99998-3.44869-8.99998ZM-3.67093-0.855489-1.14911-3.69676C-0.455095-4.47864-0.455095-5.75103-1.14911-6.53308L-2.18982-7.70555C-2.88399-8.48743-4.01324-8.48743-4.70755-7.70555L-7.22938-4.86445-3.67093-0.855489Z" fill="#7C7C7B" fill-rule="evenodd" transform="matrix(1.00145 8.75495e-08 8.74228e-08 -1 186 101)"/><path d="M-7.05825 0-7.05825-6.68673-2.47409-6.68673C-1.10767-6.68673 0-5.57887 0-4.21262L0-2.47428C0-1.10768-1.10785-0.000179062-2.47409-0.000179062L-7.05825-0.000179062-7.05825 0Z" fill="#6A4742" fill-rule="evenodd" transform="matrix(0.91247 -0.411481 -0.411087 -0.911596 168.676 113.889)"/><path d="M-7.42953-7.42948-2.84543-7.42948C-1.27634-7.42948 0-6.15295 0-4.584L0-2.84548C0-1.27636-1.27651 0-2.84543 0L-7.42953 0C-7.63456 0-7.80108-0.166349-7.80108-0.371376L-7.80108-7.05811C-7.80108-7.26314-7.63473-7.42948-7.42953-7.42948ZM-2.84579-0.742752C-1.68638-0.742752-0.743276-1.68587-0.743276-2.8453L-0.743276-4.58382C-0.743276-5.74307-1.68638-6.6862-2.84579-6.6862L-7.05834-6.6862-7.05834-0.742572-2.84579-0.742572-2.84579-0.742752Z" fill="#7C7C7B" fill-rule="evenodd" transform="matrix(0.91247 -0.411481 -0.411087 -0.911596 168.862 113.398)"/><path d="M0-6.68673 0 0-4.58415 0C-5.95057 0-7.05825-1.10786-7.05825-2.4741L-7.05825-4.21244C-7.05825-5.57905-5.95039-6.68655-4.58415-6.68655L0-6.68655 0-6.68673Z" fill="#FFFFFF" fill-rule="evenodd" transform="matrix(0.91247 -0.411481 -0.411087 -0.911596 162.236 116.794)"/><path d="M-4.95547-7.42966-0.371369-7.42966C-0.166346-7.42966 0-7.26314 0-7.05811L0-0.371376C0-0.166349-0.166346 0-0.371369 0L-4.95547 0C-6.52475 0-7.80108-1.27654-7.80108-2.84548L-7.80108-4.584C-7.80108-6.15295-6.52475-7.42966-4.95547-7.42966ZM-0.742917-6.68655-4.95547-6.68655C-6.11488-6.68655-7.05798-5.74343-7.05798-4.584L-7.05798-2.84566C-7.05798-1.68623-6.11488-0.74311-4.95547-0.74311L-0.742917-0.74311-0.742917-6.68655-0.742917-6.68655Z" fill="#7C7C7B" fill-rule="evenodd" transform="matrix(0.91247 -0.411481 -0.411087 -0.911596 162.421 116.302)"/><path d="M-22.6088-42.3622-2.1535-42.3622C-0.964113-42.3622 0-41.4 0-40.213L0-2.14912C0-0.962182-0.964113 0-2.1535 0L-22.6088 0C-23.7978 0-24.762-0.962182-24.762-2.14912L-24.762-40.213C-24.762-41.4-23.7978-42.3622-22.6088-42.3622Z" fill="#D0D0D0" fill-rule="evenodd" transform="matrix(0.866966 0.499819 0.499457 -0.866339 219.037 144.795)"/><path d="M-0.530605-2.11816C-0.237625-2.11816 0-1.88096 0-1.58861L0-0.529549C0-0.237196-0.237625 0-0.530605 0-0.823859 0-1.06125-0.237196-1.06125-0.529549L-1.06125-1.58861C-1.06125-1.88096-0.823859-2.11816-0.530605-2.11816Z" fill="#FFFFFF" fill-rule="evenodd" transform="matrix(0.866966 0.499819 0.499457 -0.866339 208.144 139.941)"/><path d="M-0.530605-33.454C-0.237625-33.454 0-33.2168 0-32.9244L0-30.7647C0-30.4723-0.237625-30.2352-0.530605-30.2352-0.823859-30.2352-1.06125-30.4723-1.06125-30.7647L-1.06125-32.9244C-1.06125-33.2168-0.823859-33.454-0.530605-33.454ZM-0.530605-29.1347C-0.237625-29.1347 0-28.8975 0-28.6052L0-26.4453C0-26.1531-0.237625-25.9158-0.530605-25.9158-0.823859-25.9158-1.06125-26.1531-1.06125-26.4453L-1.06125-28.6052C-1.06125-28.8975-0.823859-29.1347-0.530605-29.1347ZM-0.530605-24.8151C-0.237625-24.8151 0-24.5782 0-24.2856L0-22.1261C0-21.8337-0.237625-21.5965-0.530605-21.5965-0.823859-21.5965-1.06125-21.8337-1.06125-22.1261L-1.06125-24.2856C-1.06125-24.5782-0.823859-24.8151-0.530605-24.8151ZM-0.530605-20.4961C-0.237625-20.4961 0-20.2589 0-19.9666L0-17.8067C0-17.5144-0.237625-17.2772-0.530605-17.2772-0.823859-17.2772-1.06125-17.5144-1.06125-17.8067L-1.06125-19.9666C-1.06125-20.2589-0.823859-20.4961-0.530605-20.4961ZM-0.530605-16.1768C-0.237625-16.1768 0-15.9396 0-15.6473L0-13.4874C0-13.195-0.237625-12.9579-0.530605-12.9579-0.823859-12.9579-1.06125-13.195-1.06125-13.4874L-1.06125-15.6473C-1.06125-15.9396-0.823859-16.1768-0.530605-16.1768ZM-0.530605-11.8575C-0.237625-11.8575 0-11.6203 0-11.3279L0-9.16817C0-8.87579-0.237625-8.63863-0.530605-8.63863-0.823859-8.63863-1.06125-8.87579-1.06125-9.16817L-1.06125-11.3276C-1.06125-11.6203-0.823859-11.8575-0.530605-11.8575ZM-0.530605-7.5382C-0.237625-7.5382 0-7.30097 0-7.00866L0-4.8488C0-4.55653-0.237625-4.3193-0.530605-4.3193-0.823859-4.3193-1.06125-4.55653-1.06125-4.8488L-1.06125-7.00866C-1.06125-7.30097-0.823859-7.5382-0.530605-7.5382ZM-0.530605-3.21887C-0.237625-3.21887 0-2.98168 0-2.68937L0-0.529541C0-0.237192-0.237625 0-0.530605 0-0.823859 0-1.06125-0.237192-1.06125-0.529541L-1.06125-2.68937C-1.06125-2.98168-0.823859-3.21887-0.530605-3.21887Z" fill="#FFFFFF" fill-rule="evenodd" transform="matrix(0.866966 0.499819 0.499457 -0.866339 206.533 142.728)"/><path d="M-0.530605-2.11816C-0.237625-2.11816 0-1.881 0-1.58861L0-0.529549C0-0.237235-0.237625 0-0.530605 0-0.823859 0-1.06125-0.237235-1.06125-0.529549L-1.06125-1.58861C-1.06125-1.881-0.823859-2.11816-0.530605-2.11816Z" fill="#FFFFFF" fill-rule="evenodd" transform="matrix(0.866966 0.499819 0.499457 -0.866339 189.237 172.642)"/><path d="M-6.36735-3.53013-1.76873-3.53013C-0.791754-3.53013 0-2.74 0-1.76508 0-0.790129-0.791754 0-1.76873 0L-6.36735 0C-7.34421 0-8.13608-0.790129-8.13608-1.76508-8.13608-2.74-7.34421-3.53013-6.36735-3.53013Z" fill="#D68D87" fill-rule="evenodd" transform="matrix(0.866966 0.499819 0.499457 -0.866339 204.366 140.819)"/><path d="M-4.06802 0-1.76873 0C-0.791754 0 0-0.790129 0-1.76508 0-2.74-0.791754-3.53013-1.76873-3.53013L-4.06802-3.53013Z" fill="#FFFFFF" fill-rule="evenodd" transform="matrix(0.866966 0.499819 0.499457 -0.866339 204.366 140.819)"/><path d="M-6.36735-3.53013-1.76873-3.53013C-0.791754-3.53013 0-2.74 0-1.76508 0-0.790129-0.791754 0-1.76873 0L-6.36735 0C-7.34421 0-8.13608-0.790129-8.13608-1.76508-8.13608-2.74-7.34421-3.53013-6.36735-3.53013Z" fill="#D68D87" fill-rule="evenodd" transform="matrix(0.866966 0.499819 0.499457 -0.866339 200.478 147.542)"/><path d="M-4.06802 0-1.76873 0C-0.791754 0 0-0.790129 0-1.76508 0-2.74-0.791754-3.53013-1.76873-3.53013L-4.06802-3.53013Z" fill="#FFFFFF" fill-rule="evenodd" transform="matrix(0.866966 0.499819 0.499457 -0.866339 200.478 147.542)"/><path d="M-6.36735-3.53013-1.76873-3.53013C-0.791754-3.53013 0-2.74 0-1.76508 0-0.790129-0.791754 0-1.76873 0L-6.36735 0C-7.34421 0-8.13608-0.790129-8.13608-1.76508-8.13608-2.74-7.34421-3.53013-6.36735-3.53013Z" fill="#D68D87" fill-rule="evenodd" transform="matrix(0.866966 0.499819 0.499457 -0.866339 196.591 154.266)"/><path d="M-4.06802 0-1.76873 0C-0.791754 0 0-0.790129 0-1.76508 0-2.74-0.791754-3.53013-1.76873-3.53013L-4.06802-3.53013Z" fill="#FFFFFF" fill-rule="evenodd" transform="matrix(0.866966 0.499819 0.499457 -0.866339 196.591 154.266)"/><path d="M-6.36735-3.53013-1.76873-3.53013C-0.791754-3.53013 0-2.74 0-1.76508 0-0.790129-0.791754 0-1.76873 0L-6.36735 0C-7.34421 0-8.13608-0.790129-8.13608-1.76508-8.13608-2.74-7.34421-3.53013-6.36735-3.53013Z" fill="#D68D87" fill-rule="evenodd" transform="matrix(0.866966 0.499819 0.499457 -0.866339 192.703 160.989)"/><path d="M-4.06802 0-1.76873 0C-0.791754 0 0-0.790129 0-1.76508 0-2.74-0.791754-3.53013-1.76873-3.53013L-4.06802-3.53013Z" fill="#FFFFFF" fill-rule="evenodd" transform="matrix(0.866966 0.499819 0.499457 -0.866339 192.703 160.989)"/><path d="M-6.36735-3.53013-1.76873-3.53013C-0.791754-3.53013 0-2.74 0-1.76508 0-0.790129-0.791754 0-1.76873 0L-6.36735 0C-7.34421 0-8.13608-0.790129-8.13608-1.76508-8.13608-2.74-7.34421-3.53013-6.36735-3.53013Z" fill="#D68D87" fill-rule="evenodd" transform="matrix(0.866966 0.499819 0.499457 -0.866339 188.816 167.713)"/><path d="M-4.06802 0-1.76873 0C-0.791754 0 0-0.790129 0-1.76508 0-2.74-0.791754-3.53013-1.76873-3.53013L-4.06802-3.53013Z" fill="#FFFFFF" fill-rule="evenodd" transform="matrix(0.866966 0.499819 0.499457 -0.866339 188.816 167.713)"/><path d="M-6.36735-3.53013-1.76873-3.53013C-0.791754-3.53013 0-2.74 0-1.76508 0-0.790129-0.791754 0-1.76873 0L-6.36735 0C-7.34421 0-8.13604-0.790129-8.13604-1.76508-8.13604-2.74-7.34421-3.53013-6.36735-3.53013Z" fill="#D68D87" fill-rule="evenodd" transform="matrix(0.866966 0.499819 0.499457 -0.866339 215.406 147.184)"/><path d="M-4.06802 0-1.76873 0C-0.791754 0 0-0.790129 0-1.76508 0-2.74-0.791754-3.53013-1.76873-3.53013L-4.06802-3.53013Z" fill="#FFFFFF" fill-rule="evenodd" transform="matrix(0.866966 0.499819 0.499457 -0.866339 215.406 147.184)"/><path d="M-6.36735-3.53013-1.76873-3.53013C-0.791754-3.53013 0-2.74 0-1.76508 0-0.790129-0.791754 0-1.76873 0L-6.36735 0C-7.34421 0-8.13604-0.790129-8.13604-1.76508-8.13604-2.74-7.34421-3.53013-6.36735-3.53013Z" fill="#D68D87" fill-rule="evenodd" transform="matrix(0.866966 0.499819 0.499457 -0.866339 211.519 153.908)"/><path d="M-4.06802 0-1.76873 0C-0.791754 0 0-0.790129 0-1.76508 0-2.74-0.791754-3.53013-1.76873-3.53013L-4.06802-3.53013Z" fill="#FFFFFF" fill-rule="evenodd" transform="matrix(0.866966 0.499819 0.499457 -0.866339 211.519 153.908)"/><path d="M-6.36735-3.53013-1.76873-3.53013C-0.791754-3.53013 0-2.74 0-1.76508 0-0.790129-0.791754 0-1.76873 0L-6.36735 0C-7.34421 0-8.13604-0.790129-8.13604-1.76508-8.13604-2.74-7.34421-3.53013-6.36735-3.53013Z" fill="#D68D87" fill-rule="evenodd" transform="matrix(0.866966 0.499819 0.499457 -0.866339 207.631 160.631)"/><path d="M-4.06802 0-1.76873 0C-0.791754 0 0-0.790129 0-1.76508 0-2.74-0.791754-3.53013-1.76873-3.53013L-4.06802-3.53013Z" fill="#FFFFFF" fill-rule="evenodd" transform="matrix(0.866966 0.499819 0.499457 -0.866339 207.631 160.631)"/><path d="M-6.36735-3.53013-1.76873-3.53013C-0.791754-3.53013 0-2.74 0-1.76508 0-0.790129-0.791754 0-1.76873 0L-6.36735 0C-7.34421 0-8.13604-0.790129-8.13604-1.76508-8.13604-2.74-7.34421-3.53013-6.36735-3.53013Z" fill="#D68D87" fill-rule="evenodd" transform="matrix(0.866966 0.499819 0.499457 -0.866339 203.744 167.354)"/><path d="M-4.06802 0-1.76873 0C-0.791754 0 0-0.790129 0-1.76508 0-2.74-0.791754-3.53013-1.76873-3.53013L-4.06802-3.53013Z" fill="#FFFFFF" fill-rule="evenodd" transform="matrix(0.866966 0.499819 0.499457 -0.866339 203.744 167.354)"/><path d="M-6.36735-3.53013-1.76873-3.53013C-0.791754-3.53013 0-2.74 0-1.76508 0-0.790129-0.791754 0-1.76873 0L-6.36735 0C-7.34421 0-8.13604-0.790129-8.13604-1.76508-8.13604-2.74-7.34421-3.53013-6.36735-3.53013Z" fill="#D68D87" fill-rule="evenodd" transform="matrix(0.866966 0.499819 0.499457 -0.866339 199.857 174.078)"/><path d="M-4.06802 0-1.76873 0C-0.791754 0 0-0.790129 0-1.76508 0-2.74-0.791754-3.53013-1.76873-3.53013L-4.06802-3.53013Z" fill="#FFFFFF" fill-rule="evenodd" transform="matrix(0.866966 0.499819 0.499457 -0.866339 199.857 174.078)"/><path d="M244.63 49.4765 226.06 59.8874 223.676 53.6871 242.936 45.3809 244.63 49.4765Z" fill="#6A4742" fill-rule="evenodd"/><path d="M244.61 49.4959 247.872 47.6629 246.276 44.0333 242.933 45.3778 244.61 49.4959 244.61 49.4959Z" fill="#6A4742" fill-rule="evenodd"/><path d="M220.523 55.3152 223.665 53.7291 226.065 59.9419 223.12 61.4313 220.523 55.3152Z" fill="#D0D0D0" fill-rule="evenodd"/><path d="M184.869 80.1484 223.108 61.3757 220.528 55.2801 182.22 74.5704 184.869 80.1484Z" fill="#6A4742" fill-rule="evenodd"/><path d="M183.968 78.6178 182.292 79.8146 180.79 76.9473 182.713 75.7553 183.968 78.6178Z" fill="#D0D0D0" fill-rule="evenodd"/><path d="M180.811 76.9494 180.811 76.9494C178.318 76.1467 180.072 82.5477 182.322 79.8455L180.811 76.9494Z" fill="#7C7C7B" fill-rule="evenodd"/><path d="M191.34 71.541 192.179 74.1104 210.268 65.34C211.629 64.0068 210.362 62.7418 209.274 62.8012L191.34 71.541Z" fill="#D0D0D0" fill-rule="evenodd"/><path d="M247.777 46.8553 250.989 45.2741 251.244 44.5761 252.119 44.0474C252.29 43.901 252.434 43.4621 251.843 43.5341L250.803 44.0303 250.187 43.7587 247.105 45.2587 247.777 46.8553Z" fill="#6A4742" fill-rule="evenodd"/><path d="M0 3.71467C-6.12695e-16 1.66312 1.66312 0 3.71467 0L49.2086 0C51.2602 -6.12695e-16 52.9233 1.66312 52.9233 3.71467L52.9233 73.2852C52.9233 75.3368 51.2602 76.9999 49.2086 76.9999L3.71467 76.9999C1.66312 76.9999 6.12695e-16 75.3368 0 73.2852Z" fill="#6A4742" fill-rule="evenodd" transform="matrix(1.00145 0 -0 1 23 23.0001)"/><rect x="0" y="0" width="38.9436" height="8.99998" fill="#FFFFFF" transform="matrix(1.00145 0 -0 1 30 31)"/><rect x="0" y="0" width="9.98553" height="11" fill="#FFFFFF" transform="matrix(1.00145 0 -0 1 29 47)"/><rect x="0" y="0" width="9.98553" height="11" fill="#FFFFFF" transform="matrix(1.00145 0 -0 1 45 47)"/><rect x="0" y="0" width="9.98553" height="11" fill="#FFFFFF" transform="matrix(1.00145 0 -0 1 60 47)"/><rect x="0" y="0" width="9.98553" height="11" fill="#FFFFFF" transform="matrix(1.00145 0 -0 1 29 64)"/><rect x="0" y="0" width="9.98553" height="11" fill="#FFFFFF" transform="matrix(1.00145 0 -0 1 45 64)"/><rect x="0" y="0" width="9.98553" height="12" fill="#FFFFFF" transform="matrix(1.00145 0 -0 1 29 80)"/><rect x="0" y="0" width="9.98553" height="12" fill="#FFFFFF" transform="matrix(1.00145 0 -0 1 45 80)"/><rect x="0" y="0" width="9.98553" height="28.0001" fill="#FFFFFF" transform="matrix(1.00145 0 -0 1 60 64)"/><path d="M11.1284 61.0006 10.564 61.0006C4.72965 61.0006 0 56.2708 0 50.4365L0 10.564C0 4.72973 4.72973 0 10.5642 0L11.1286 0C16.963 0 21.6926 4.72973 21.6926 10.564L21.6926 50.4364C21.6926 56.2708 16.9628 61.0006 11.1284 61.0006Z" fill="#D0D0D0" fill-rule="evenodd" transform="matrix(0.259169 -0.965832 -0.967044 -0.259494 170.002 199.668)"/><path d="M11.1339 26.0469 1.89977 26.0469C0.850556 26.0469 0 25.1963 0 24.1472L0 1.89978C0 0.850559 0.850556 0 1.89977 0L11.1339 0C12.1831 0 13.0337 0.850559 13.0337 1.89978L13.0337 24.1472C13.0337 25.1965 12.1831 26.0469 11.1339 26.0469Z" fill="#D68D87" fill-rule="evenodd" transform="matrix(0.259169 -0.965832 -0.967044 -0.259494 154.22 190.964)"/><path d="M0.984321 1.96698C0.207204 1.96698-0.271197 1.10032 0.166496 0.437196 0.497941-0.0660272 1.23166-0.160387 1.68043 0.28837 2.28763 0.877975 1.88006 1.96698 0.984321 1.96698Z" fill="#FFFFFF" fill-rule="evenodd" transform="matrix(0.259169 -0.965832 -0.967044 -0.259494 152.55 187.108)"/><path d="M0.983908 1.96868C0.441273 1.96868 0 1.52951 0 0.984827 0 0.105191 1.07835-0.327543 1.67871 0.290091 2.29177 0.885172 1.87166 1.96868 0.983908 1.96868Z" fill="#FFFFFF" fill-rule="evenodd" transform="matrix(0.259169 -0.965832 -0.967044 -0.259494 153.712 182.782)"/><path d="M0.983907 1.96886C0.447379 1.96886 0 1.52922 0 0.984961 0 0.116749 1.05873-0.332255 1.67993 0.288942 2.29698 0.90607 1.85571 1.96886 0.983907 1.96886Z" fill="#FFFFFF" fill-rule="evenodd" transform="matrix(0.259169 -0.965832 -0.967044 -0.259494 147.99 185.888)"/><path d="M0.98393 1.96815C0.448936 1.96815 0 1.53323 0 0.984321 0 0.106655 1.06706-0.326967 1.67875 0.288213 2.29915 0.908522 1.85054 1.96815 0.98393 1.96815Z" fill="#FFFFFF" fill-rule="evenodd" transform="matrix(0.259169 -0.965832 -0.967044 -0.259494 149.15 181.562)"/><path d="M0.985293 1.967C0.200283 1.967-0.269649 1.086 0.167391 0.43712 0.503556-0.072297 1.23931-0.154934 1.68132 0.287071 2.29722 0.90298 1.85978 1.967 0.985293 1.967Z" fill="#FFFFFF" fill-rule="evenodd" transform="matrix(0.259169 -0.965832 -0.967044 -0.259494 143.427 184.669)"/><path d="M0.978558 1.96763C-0.107797 1.96763-0.370124 0.471899 0.602246 0.0747417 1.16549-0.159009 1.82188 0.176351 1.94279 0.79179 2.06442 1.4126 1.5865 1.96763 0.978558 1.96763Z" fill="#FFFFFF" fill-rule="evenodd" transform="matrix(0.259169 -0.965832 -0.967044 -0.259494 144.59 180.336)"/><path d="M0.983931 1.96708C0.429478 1.96708 0 1.514 0 0.983174 0 0.110399 1.06282-0.328675 1.67997 0.288292 2.29891 0.907132 1.85624 1.96708 0.983931 1.96708Z" fill="#FFFFFF" fill-rule="evenodd" transform="matrix(0.259169 -0.965832 -0.967044 -0.259494 138.867 183.447)"/><path d="M0.983925 1.96425C0.440304 1.96425 0 1.52395 0 0.980334 0-0.0711579 1.47634-0.3978 1.89278 0.604028 2.16309 1.2648 1.67271 1.96425 0.983925 1.96425Z" fill="#FFFFFF" fill-rule="evenodd" transform="matrix(0.259169 -0.965832 -0.967044 -0.259494 140.025 179.12)"/><path d="M0.984879 1.96689C0.20134 1.96689-0.269647 1.084 0.167064 0.437052 0.632677-0.269982 1.75979-0.0956661 1.9503 0.79008 2.06998 1.4113 1.595 1.96689 0.984879 1.96689Z" fill="#FFFFFF" fill-rule="evenodd" transform="matrix(0.259169 -0.965832 -0.967044 -0.259494 134.304 182.227)"/><path d="M0.985205 1.9671C0.198246 1.9671-0.268833 1.08349 0.16739 0.437369 0.501029-0.0702624 1.23784-0.156645 1.6813 0.287319 2.29925 0.920414 1.85358 1.9671 0.985205 1.9671Z" fill="#FFFFFF" fill-rule="evenodd" transform="matrix(0.259169 -0.965832 -0.967044 -0.259494 135.465 177.902)"/><path d="M0 8.10305C3.22225 5.40203 6.45361 2.70102 9.67576 0 11.3871 1.97482 11.7239 5.9865 8.82021 8.45733 5.92566 10.9281 1.91154 10.1488 0 8.10305Z" fill="#D68D87" fill-rule="evenodd" transform="matrix(1.00145 0 -0 1 132 46)"/><path d="M10.9841 1.73963C7.69185 4.5111 4.46395 7.22853 1.17161 10 0.0773055 8.36231-0.272191 6.63466 0.215284 4.79902 0.87735 2.32449 2.51437 0.731839 5.07089 0.164996 7.26881-0.311979 9.23681 0.254967 10.9841 1.73963Z" fill="#D68D87" fill-rule="evenodd" transform="matrix(1.00145 0 -0 1 130 43)"/><path d="M0 8.43587C3.26372 5.62392 6.53667 2.81196 9.80028 0 11.5336 2.05593 11.8748 6.23239 8.93373 8.80471 6.00193 11.3769 1.93615 10.5656 0 8.43587Z" fill="#6A4742" fill-rule="evenodd" transform="matrix(0.500543 -0.865712 0.866339 0.500906 152.027 67.7145)"/><path d="M11.0119 1.78242C7.71131 4.62207 4.47524 7.40634 1.17458 10.246 0.0775011 8.56802-0.272879 6.79786 0.215829 4.91707 0.879569 2.38166 2.52073 0.749842 5.08372 0.169055 7.2872-0.319653 9.26018 0.261239 11.0119 1.78242Z" fill="#6A4742" fill-rule="evenodd" transform="matrix(0.500543 -0.865712 0.866339 0.500906 148.568 68.0872)"/><path d="M0 0 525.087 0.000104835" stroke="#7C7C7B" stroke-width="1.99711" stroke-miterlimit="8" fill="none" fill-rule="evenodd" transform="matrix(1.00145 0 -0 1 0 207)"/><path d="M11.6008 0C16.4345 0.0347778 21.2221 0.545274 25.9868 1.27614 28.5762 1.6706 31.1887 2.04188 33.8127 2.1811 35.4355 2.26235 37.1042 1.96063 38.7269 1.72867 44.5735 0.881671 50.4084-0.0928463 56.3469 0.150809 60.0411 0.301619 63.7355 0.626528 67.4183 0.858485 67.7521 0.881671 67.9017 0.98611 67.9017 1.3342 67.8902 2.58715 67.9132 3.8517 67.8786 5.10465 67.8786 5.30193 67.7406 5.55718 67.5794 5.67321 65.9452 6.79854 65.151 8.42277 64.9209 10.3486 64.7943 11.4624 64.6792 12.5761 64.5871 13.6898 64.403 15.9174 63.2291 17.298 61.123 17.9593 59.2355 18.5509 57.3021 18.8062 55.3457 18.9106 51.3291 19.131 47.3355 18.899 43.3995 18.0056 42.8011 17.8664 42.2141 17.6692 41.6502 17.4604 40.4418 16.9963 39.5672 16.161 39.1067 14.9313 38.4392 13.1445 37.8753 11.3115 37.1387 9.54809 36.782 8.7012 36.2066 7.90068 35.5851 7.21619 34.6874 6.21849 33.2833 6.24167 32.282 7.15823 31.1887 8.15593 30.6593 9.49013 30.176 10.8358 29.6926 12.1816 29.2553 13.539 28.7718 14.8848 28.2885 16.2074 27.3563 17.0659 26.0558 17.53 23.9037 18.3073 21.6595 18.5857 19.4038 18.783 15.721 19.1194 12.0496 19.1194 8.40136 18.3885 7.59574 18.2261 6.81323 17.9477 6.04212 17.6692 4.43089 17.0775 3.59077 15.8245 3.36056 14.1539 3.17646 12.7734 3.08436 11.3811 2.90026 10.0121 2.65855 8.2023 1.82994 6.72888 0.310705 5.67321 0.161102 5.56877 0.0344995 5.33671 0.0344995 5.16272 0 3.90977 0.0229997 2.65671 0 1.39217 0 0.997702 0.161102 0.881671 0.54091 0.846893 4.22368 0.580052 7.91805 0.290026 11.6008 0ZM13.9026 2.35509C13.9026 2.29713 13.8911 2.23906 13.8911 2.19269 11.0484 2.44794 8.20576 2.71478 5.3631 2.94684 4.66109 3.0048 4.28128 3.36449 4.09708 4.00251 4.02808 4.25775 3.94747 4.5246 3.91297 4.79144 3.64827 6.84491 3.86698 8.88679 4.24678 10.9055 4.44238 11.9381 4.67259 13.0169 5.1674 13.9219 5.97301 15.3837 7.46914 16.0334 8.98837 16.509 12.1302 17.4951 15.3642 17.5996 18.6212 17.3096 20.8078 17.1124 22.9484 16.7643 24.9855 15.8593 26.2285 15.3025 27.1952 14.5135 27.6555 13.2258 28.369 11.1723 29.0827 9.10726 29.6926 7.0189 30.222 5.22068 29.4279 4.03739 27.5865 3.70089 23.052 2.86559 18.5061 2.3435 13.9026 2.35509ZM54.1026 2.19269C50.9148 2.47112 47.7843 2.70319 44.6655 3.0164 43.2384 3.15561 41.8228 3.42245 40.4073 3.66611 38.6349 3.96773 37.7027 5.11635 38.1515 6.68251 38.7845 8.92157 39.5441 11.126 40.3152 13.3302 40.6144 14.1771 41.1323 14.9313 41.9724 15.3373 42.9046 15.7782 43.8483 16.2422 44.8382 16.5206 48.049 17.4256 51.3406 17.5996 54.6435 17.3211 56.6346 17.1472 58.6026 16.8107 60.421 15.8942 61.8251 15.1864 62.9644 14.2235 63.3442 12.5993 63.8275 10.5226 64.1268 8.42277 64.0807 6.28804 64.0692 5.46433 63.9081 4.64063 63.7355 3.8401 63.6204 3.30642 63.2406 3.0164 62.6537 2.97003 59.7995 2.70319 56.9338 2.44794 54.1026 2.19269Z" fill="#D68D87" fill-rule="evenodd" transform="matrix(1.00145 0 -0 1 443 122)"/><path d="M10.0817 0.194609C14.6679 0.182453 19.1968 0.729921 23.7026 1.58151 25.5486 1.93437 26.3283 3.16303 25.8008 5.06082 25.1931 7.25069 24.4938 9.41614 23.7715 11.5694 23.3242 12.9319 22.3497 13.7592 21.1115 14.331 19.0821 15.2799 16.9495 15.6571 14.7711 15.8517 11.5379 16.1558 8.31609 16.0463 5.1745 15.0123 3.66109 14.5135 2.1706 13.8322 1.36801 12.2994 0.874966 11.3504 0.657084 10.219 0.450762 9.13633 0.0609279 7.0195-0.145394 4.89052 0.118211 2.72507 0.152684 2.44526 0.221424 2.16545 0.301723 1.89779 0.473675 1.22876 0.852053 0.851592 1.56288 0.790812 4.39483 0.547468 7.22678 0.267656 10.0587 0 10.0703 0.0730473 10.0817 0.133828 10.0817 0.194609ZM0.657084 2.7737C1.05838 2.88321 1.36801 2.99273 1.68901 3.05351 2.72093 3.27254 3.48914 3.88079 4.07384 4.80543 4.80758 5.98546 5.57579 7.15333 6.33255 8.32121 7.71983 10.4745 9.11857 12.6278 10.506 14.7932 10.6664 15.0366 10.7926 15.2313 11.0907 14.9758 11.8245 14.3553 12.0308 12.3967 11.4232 11.6424 9.30208 8.99035 7.13513 6.36263 5.05983 3.66187 3.97063 2.25065 2.49159 1.95868 0.920793 1.66672 0.817684 2.05593 0.748841 2.37232 0.657084 2.7737Z" fill="#D0D0D0" fill-rule="evenodd" fill-opacity="0.501961" transform="matrix(1.00145 0 -0 1 447 124)"/><path d="M16.6255 0C19.5567 0.26801 22.5117 0.548191 25.4787 0.804029 26.0745 0.852717 26.4796 1.15724 26.5988 1.71761 26.7775 2.57032 26.9324 3.43521 26.9562 4.28793 27.0039 6.52939 26.694 8.73421 26.1936 10.9147 25.8004 12.6201 24.6208 13.6312 23.1671 14.3743 21.2845 15.3245 19.2469 15.69 17.1855 15.8726 13.7659 16.165 10.358 15.9823 7.03372 15.0321 6.00892 14.7397 5.03186 14.2647 4.06671 13.7895 3.19691 13.3632 2.6607 12.5714 2.35092 11.6822 1.55256 9.37989 0.766215 7.05312 0.110835 4.70212-0.341923 3.05754 0.623233 1.85161 2.44628 1.53491 3.91182 1.27908 5.37747 0.998894 6.85491 0.852717 10.084 0.536019 13.325 0.280182 16.6255 0ZM26.0387 1.62012C25.2761 1.80292 24.5731 1.86378 23.9774 2.14397 23.2744 2.46066 22.5117 2.85051 22.0113 3.42304 19.6402 6.15171 17.3524 8.95353 15.0527 11.7309 14.8978 11.9258 14.7549 12.1816 14.731 12.4253 14.6476 13.2536 14.8383 14.0332 15.2911 14.7397 15.6127 15.227 15.7914 15.227 16.1132 14.7397 18.2818 11.4994 20.4623 8.25916 22.619 4.99447 23.3101 3.94689 24.168 3.22818 25.4072 2.99668 25.6931 2.94799 25.9791 2.83833 26.3247 2.74085 26.2293 2.36329 26.146 2.02213 26.0387 1.62012Z" fill="#D0D0D0" fill-rule="evenodd" fill-opacity="0.501961" transform="matrix(1.00145 0 -0 1 481 124)"/><path d="M0 1.06057C0.0906118 0.67169 0.169807 0.35356 0.260419 0 1.81162 0.282805 3.27221 0.565611 4.34782 1.93254 6.40844 4.53677 8.53705 7.08202 10.6317 9.6627 11.2318 10.405 11.028 12.3022 10.3034 12.8914 10.009 13.1271 9.8845 12.9385 9.7259 12.7147 8.35593 10.6172 6.97464 8.53148 5.60456 6.44576 4.85735 5.31443 4.09872 4.18321 3.37403 3.04021 2.80794 2.14459 2.03799 1.5672 1.01905 1.34338 0.701958 1.27262 0.396285 1.16655 0 1.06057Z" fill="#7C7C7B" fill-rule="evenodd" transform="matrix(1.00145 0 -0 1 448 126)"/><path d="M10.7136 0C10.8038 0.387426 10.894 0.716094 10.9841 1.08006 10.6573 1.17401 10.3868 1.26785 10.1163 1.32661 8.94419 1.53787 8.13274 2.24223 7.47905 3.25191 5.43906 6.3863 3.38791 9.50906 1.32539 12.6436 1.00986 13.1131 0.852096 13.1248 0.547725 12.6436 0.119476 11.9744-0.0608128 11.2113 0.0180186 10.4129 0.0405419 10.1782 0.164522 9.93168 0.32239 9.74389 2.49752 7.05547 4.66139 4.36716 6.9042 1.7375 7.3776 1.18574 8.09895 0.810044 8.7639 0.504838 9.33866 0.234823 9.99234 0.176064 10.7136 0Z" fill="#7C7C7B" fill-rule="evenodd" transform="matrix(1.00145 0 -0 1 496 126)"/><rect x="0" y="0" width="74.2751" height="96.8076" stroke="#6A4742" stroke-width="2.66284" stroke-miterlimit="8" fill="#F2F2F2" transform="matrix(0.997627 0.0871548 -0.0870306 0.996206 19.3663 159.878)"/><rect x="0" y="0" width="67.2113" height="10.9857" fill="#D68D87" transform="matrix(0.997627 0.0871548 -0.0870306 0.996206 22.5346 164.238)"/><path d="M0 0 64.2938 0.000104836" stroke="#6A4742" stroke-width="1.66427" stroke-miterlimit="8" fill="none" fill-rule="evenodd" transform="matrix(0.997627 0.0871548 -0.0870306 0.996206 18.6697 219.766)"/><path d="M0 0 64.2938 0.000104836" stroke="#6A4742" stroke-width="1.66427" stroke-miterlimit="8" fill="none" fill-rule="evenodd" transform="matrix(0.997627 0.0871548 -0.0870306 0.996206 17.8978 228.575)"/></g></svg>